<?xml version="1.0" standalone="no"?>
<!DOCTYPE svg PUBLIC "-//W3C//DTD SVG 1.1//EN" "http://www.w3.org/Graphics/SVG/1.1/DTD/svg11.dtd" >
<svg xmlns="http://www.w3.org/2000/svg">
<metadata>
Created by FontForge 20120731 at Sun Oct 11 00:19:34 2015
 By Ads
</metadata>
<defs>
<font id="iconfont" horiz-adv-x="1024" >
  <font-face 
    font-family="iconfont"
    font-weight="500"
    font-stretch="normal"
    units-per-em="1024"
    panose-1="2 0 6 3 0 0 0 0 0 0"
    ascent="812"
    descent="-212"
    x-height="792"
    bbox="28.6296 -180 994.63 792"
    underline-thickness="50"
    underline-position="-100"
    unicode-range="U+0078-E77D"
  />
<missing-glyph horiz-adv-x="374" 
d="M34 0v682h272v-682h-272zM68 34h204v614h-204v-614z" />
    <glyph glyph-name=".notdef" horiz-adv-x="374" 
d="M34 0v682h272v-682h-272zM68 34h204v614h-204v-614z" />
    <glyph glyph-name=".null" horiz-adv-x="0" 
 />
    <glyph glyph-name="nonmarkingreturn" horiz-adv-x="341" 
 />
    <glyph glyph-name="x" unicode="x" horiz-adv-x="1001" 
d="M281 543q-27 -1 -53 -1h-83q-18 0 -36.5 -6t-32.5 -18.5t-23 -32t-9 -45.5v-76h912v41q0 16 -0.5 30t-0.5 18q0 13 -5 29t-17 29.5t-31.5 22.5t-49.5 9h-133v-97h-438v97zM955 310v-52q0 -23 0.5 -52t0.5 -58t-10.5 -47.5t-26 -30t-33 -16t-31.5 -4.5q-14 -1 -29.5 -0.5
t-29.5 0.5h-32l-45 128h-439l-44 -128h-29h-34q-20 0 -45 1q-25 0 -41 9.5t-25.5 23t-13.5 29.5t-4 30v167h911zM163 247q-12 0 -21 -8.5t-9 -21.5t9 -21.5t21 -8.5q13 0 22 8.5t9 21.5t-9 21.5t-22 8.5zM316 123q-8 -26 -14 -48q-5 -19 -10.5 -37t-7.5 -25t-3 -15t1 -14.5
t9.5 -10.5t21.5 -4h37h67h81h80h64h36q23 0 34 12t2 38q-5 13 -9.5 30.5t-9.5 34.5q-5 19 -11 39h-368zM336 498v228q0 11 2.5 23t10 21.5t20.5 15.5t34 6h188q31 0 51.5 -14.5t20.5 -52.5v-227h-327z" />
    <glyph glyph-name="uniE60B" unicode="&#xe60b;" 
d="M352 -31q-18 0 -32.5 -9t-23 -23.5t-8.5 -32t8.5 -32t23 -23t32.5 -8.5q7 0 14 1.5t13.5 4.5t12 7.5t10 10t7.5 12t5 13.5t2 15q0 17 -9 31.5t-23.5 23.5t-31.5 9v0zM799 -31q-26 0 -45 -19t-19 -45.5t19 -45t45 -18.5q13 0 25 5t20.5 13.5t13.5 20.5t5 25
q0 17 -8.5 31.5t-23 23.5t-32.5 9v0zM863 1h-520q-34 0 -61 24t-31 59l-54 381l-31 179q-1 4 -3 8.5t-4.5 8t-6.5 6t-8 4t-8 1.5h-41q-13 0 -22.5 9.5t-9.5 22.5t9.5 22.5t22.5 9.5h41q23 0 43.5 -11t33.5 -30t16 -42l31 -178l54 -383q2 -11 10.5 -19.5t18.5 -8.5h520
q13 0 22.5 -9t9.5 -22.5t-9.5 -22.5t-22.5 -9zM383 128q-6 0 -11.5 2.5t-10 6.5t-7 9.5t-3.5 11.5q0 9 3.5 16.5t10.5 12.5t16 5l434 32q11 0 20 8t11 19l50 288q2 18 -8 30q-3 4 -7 5.5t-8 1.5h-554q-13 0 -22.5 9.5t-9.5 22.5q0 5 1.5 10t4.5 9t7 7t9 4.5t10 1.5h554
q38 0 63 -29q29 -33 24 -81l-51 -288q-4 -34 -30.5 -58t-61.5 -24l-431 -31q-2 0 -3 -1zM383 128z" />
    <glyph glyph-name="uniE60C" unicode="&#xe60c;" 
d="M942 73q-9 -9 -21.5 -9.5t-21.5 7.5l-370 370q-8 9 -12.5 11t-9 0t-13.5 -11l-370 -370q-8 -8 -21 -7.5t-22 10t-9.5 22t8.5 21.5l411 411q7 7 18 8h5q6 -1 10.5 -3t8.5 -5l411 -411q16 -17 3 -38q-3 -4 -5 -6z" />
    <glyph glyph-name="uniE60E" unicode="&#xe60e;" 
d="M288 448h448q13 0 22.5 9t9.5 22.5t-9.5 23t-22.5 9.5h-448q-13 0 -22.5 -9.5t-9.5 -23t9.5 -22.5t22.5 -9zM736 320h-448q-13 0 -22.5 -9t-9.5 -22.5t9.5 -23t22.5 -9.5h448q13 0 22.5 9.5t9.5 23t-9.5 22.5t-22.5 9zM736 128h-448q-13 0 -22.5 -9t-9.5 -22.5t9.5 -23
t22.5 -9.5h448q13 0 22.5 9.5t9.5 23t-9.5 22.5t-22.5 9zM419 640h160q13 0 24 6.5t17.5 17.5t6.5 24t-6.5 24t-17.5 17.5t-24 6.5h-160q-20 0 -34 -14t-14 -34q0 -13 6.5 -24t17.5 -17.5t24 -6.5zM832 704h-32q-13 0 -22.5 -9.5t-9.5 -22.5t9.5 -22.5t22.5 -9.5h32
q26 0 45 -19t19 -45v-608q0 -26 -19 -45t-45 -19h-640q-26 0 -45 19t-19 45v608q0 26 19 45t45 19h32q13 0 22.5 9.5t9.5 22.5t-9.5 22.5t-22.5 9.5h-32q-53 0 -90.5 -37.5t-37.5 -90.5v-608q0 -53 37.5 -90.5t90.5 -37.5h640q53 0 90.5 37.5t37.5 90.5v608q0 53 -37.5 90.5
t-90.5 37.5zM832 704z" />
    <glyph glyph-name="uniE610" unicode="&#xe610;" 
d="M948 -103l-207 207q91 108 91 248q0 159 -112.5 271.5t-271.5 112.5t-271.5 -112.5t-112.5 -271.5t112.5 -271.5t271.5 -112.5q140 0 248 91l207 -207q7 -7 15.5 -10t17.5 -1t15 8q2 2 3.5 4.5t2.5 5t1.5 5.5t0.5 6v6q0 2 -1 5t-2.5 6t-3.5 5.5t-4 4.5zM448 32
q-133 0 -226.5 93.5t-93.5 226.5t93.5 226.5t226.5 93.5t226.5 -93.5t93.5 -226.5t-93.5 -226.5t-226.5 -93.5z" />
    <glyph glyph-name="uniE611" unicode="&#xe611;" 
d="M942 494q-9 9 -21.5 9.5t-21.5 -7.5l-370 -370q-8 -8 -12.5 -10.5t-9 0t-13.5 10.5l-370 370q-3 3 -7.5 5t-9 2.5t-9 -0.5t-9 -3.5t-8.5 -5.5q-9 -10 -9.5 -22.5t8.5 -21.5l411 -411q7 -7 18 -8h5q12 1 19 8l411 411q3 3 4.5 6.5t2.5 7.5t1 8t-1.5 7.5t-3.5 7.5t-5 7z
" />
    <glyph glyph-name="uniE614" unicode="&#xe614;" 
d="M877 320zM758.5 -138.5q9.5 9.5 10 22.5t-7.5 22l-377 376q-12 12 -12 18t12 18l377 376q4 5 6 10.5t1.5 11.5t-3 11.5t-6.5 10.5q-10 9 -23 9.5t-22 -7.5l-418 -419q-7 -7 -8 -18v-6q0 -5 2 -10t6 -8l418 -419q9 -8 22 -8t22.5 9.5z" />
    <glyph glyph-name="uniE617" unicode="&#xe617;" 
d="M126 346.5q0 93.5 46 172.5t125 125t172 46q70 0 134 -27.5t110 -73.5t73 -109.5t27 -133.5q0 -139 -97 -239q-97 -99 -235 -104h-12q-93 0 -172 46t-125 125t-46 172.5zM723 33l182 -183l53 53l-182 182q97 113 97 261q0 110 -54 203t-147 147t-202.5 54t-202.5 -54
t-147 -147t-54 -202.5t54 -202.5t147 -147t202 -54q143 0 254 90z" />
    <glyph glyph-name="uniE627" unicode="&#xe627;" 
d="M805 663q-54 21 -104.5 20.5t-82 -13t-60 -34t-36.5 -31.5t-13 -16q-5 6 -13.5 16t-36.5 31.5t-59.5 34t-82.5 13t-104 -20.5q-60 -23 -100.5 -76.5t-46.5 -131.5t25.5 -164t129.5 -183.5t253 -181.5q19 -10 35 -11v0v0q16 1 35 11q88 48 158 100t116 102.5t77.5 102
t44 99t14 92t-10 82.5t-31 69.5t-47 54t-60.5 35.5z" />
    <glyph glyph-name="uniE629" unicode="&#xe629;" 
d="M865 556q-4 0 -7 -0.5t-6 -1.5t-5.5 -3t-4.5 -4t-4 -4.5t-3 -5.5t-1.5 -6t-0.5 -7v-577q0 -8 -4.5 -15.5t-12 -12t-15.5 -4.5h-578q-8 0 -15.5 4.5t-12 12t-4.5 15.5v701l298 -178l4 -2q7 -5 16 -6h1h1h1v0h2h1q9 1 16 6l4 2l300 179l22 12q23 14 28 18t3 9
q-7 28 -31 44.5t-56 16.5h-1h-86h-491q-39 0 -67.5 -28.5t-28.5 -67.5v-706q0 -40 28.5 -68t67.5 -28h578q26 0 48 13t35 35t13 48v577q0 14 -9.5 23t-22.5 9zM773 685l-261 -157l-261 157h463h59zM641 205q13 0 22.5 9.5t9.5 22.5t-9.5 22.5t-22.5 9.5h-83l72 72
q6 6 8.5 14t0 16.5t-8.5 14.5q-9 9 -22.5 9t-22.5 -9l-73 -73l-73 73q-10 9 -23 9t-22.5 -9t-9.5 -22.5t9 -22.5l72 -72h-81q-2 0 -5 -0.5t-5.5 -1.5t-5 -2.5t-4.5 -3t-4 -3.5t-3.5 -4.5t-2.5 -5t-1.5 -5.5t-0.5 -6q0 -13 9.5 -22.5t22.5 -9.5h99v-64h-99q-13 0 -22.5 -9.5
t-9.5 -22.5t9.5 -22.5t22.5 -9.5h99v-65q0 -13 9 -22.5t22.5 -9.5t23 9.5t9.5 22.5v65h94q13 0 22.5 9.5t9.5 22.5q0 9 -4.5 16.5t-11.5 11.5t-16 4h-94v64h94z" />
    <glyph glyph-name="uniE62A" unicode="&#xe62a;" 
d="M960 438v95q0 13 -5 24.5t-13.5 20.5t-20.5 14t-25 5h-768q-27 0 -45.5 -19t-18.5 -45v-95q13 0 22.5 -9.5t9.5 -23t-9.5 -22.5t-22.5 -9v-144q13 0 22.5 -9.5t9.5 -22.5q0 -9 -4.5 -16.5t-11.5 -11.5t-16 -4v-98q0 -26 18.5 -44.5t45.5 -18.5h768q27 0 45.5 18.5
t18.5 44.5v98q-9 0 -16 4t-11.5 11.5t-4.5 16.5q0 13 9.5 22.5t22.5 9.5v144q-13 0 -22.5 9t-9.5 22.5t9.5 23t22.5 9.5zM896 475q-32 -28 -32 -70.5t32 -71.5v-62q-32 -29 -32 -71.5t32 -70.5v-27q0 -14 -9.5 -23t-22.5 -9h-704q-13 0 -22.5 9t-9.5 23v25q32 29 32 71
t-32 71v66q32 28 32 70.5t-32 71.5v25q0 6 2.5 12t7 10.5t10 7t12.5 2.5h704q7 0 12.5 -2.5t10 -7t7 -10.5t2.5 -12v-27zM641 317q9 0 16 4.5t11.5 11.5t4.5 16q0 13 -9.5 22.5t-22.5 9.5h-83l72 72q9 9 9 22.5t-9 22.5t-22.5 9t-22.5 -9l-73 -73l-73 73q-10 9 -23 9
t-22.5 -9t-9.5 -22.5t9 -22.5l72 -72h-81q-13 0 -22.5 -9.5t-9.5 -22.5t9.5 -22.5t22.5 -9.5h99v-64h-99q-13 0 -22.5 -9.5t-9.5 -22.5t9.5 -22.5t22.5 -9.5h99v-65q0 -13 9 -22.5t22.5 -9.5t23 9.5t9.5 22.5v65h94q13 0 22.5 9.5t9.5 22.5t-9.5 22.5t-22.5 9.5h-94v64h94z
" />
    <glyph glyph-name="uniE62C" unicode="&#xe62c;" 
d="M510 -127q-26 0 -71 39l-190 157h-85q-14 0 -27 3.5t-24 10t-20 16t-15.5 20t-10 23.5t-3.5 27v263q0 16 5 31t14.5 27.5t21.5 21.5t27 14t32 5h85l190 158q45 38 71 38q21 0 36.5 -15t15.5 -47v-730q0 -32 -15.5 -47t-36.5 -15zM164 465q-9 0 -17 -4.5t-12.5 -12
t-4.5 -16.5v-263q0 -7 3 -13t7.5 -10.5t10.5 -7.5t13 -3h99q3 0 6.5 -0.5t6.5 -1.5t5.5 -3t5.5 -4l199 -167q5 -6 9 -9v701l-9 -9l-199 -167q-5 -5 -11 -7.5t-13 -2.5h-99zM678 74q-11 0 -20 6q-7 5 -10.5 13t-3 17t6.5 16l13 18q22 31 32.5 47.5t21 46.5t10.5 62
q0 34 -9.5 62.5t-19 44t-31.5 44.5q-10 13 -17 23q-6 7 -6.5 16t3 17t10.5 13q11 9 24.5 6.5t22.5 -13.5q5 -7 16 -22q18 -24 27.5 -38t22 -39t18 -52.5t5.5 -61.5q0 -42 -13.5 -81.5t-26 -60t-37.5 -53.5l-13 -17q-3 -5 -7 -8t-9 -4.5t-10 -1.5zM790 -39q-12 0 -21 8
q-11 9 -12 23t8 24q19 21 33.5 39.5t30 41t26.5 45t20 48t14 53.5t5 57q0 57 -19.5 111.5t-45 91.5t-64.5 81q-9 11 -8 24.5t12 22.5q5 5 11 7t12.5 1.5t12.5 -3.5t10 -8q31 -35 53.5 -66.5t45 -73t34.5 -89t12 -99.5q0 -97 -39.5 -174.5t-105.5 -153.5l-3 -2q-1 -2 -3 -3
t-3.5 -2t-3.5 -2t-4 -1t-4 -0.5t-4 -0.5zM790 -39z" />
    <glyph glyph-name="uniE644" unicode="&#xe644;" 
d="M96 -84q-13 0 -22.5 9.5t-9.5 22.5v448q0 13 9.5 22.5t22.5 9.5t22.5 -9.5t9.5 -22.5v-448q0 -13 -9.5 -22.5t-22.5 -9.5zM864 428h-189q12 28 19.5 83t0.5 107q-2 18 -7.5 34t-13.5 30t-19 25.5t-24.5 20t-28.5 13.5q-19 7 -38 7t-35.5 -5.5t-26.5 -16.5
q-12 -12 -22 -35t-15 -41t-14 -52l-5 -18l-4 -16q-2 -10 -4 -16.5t-4.5 -14.5t-5 -13.5t-5.5 -10.5q-14 -23 -40 -43t-41 -27t-28 -11h-90q-13 0 -22.5 -9.5t-9.5 -22.5v-448q0 -13 9.5 -22.5t22.5 -9.5h87q22 -12 49 -24t83.5 -26t108.5 -14h216q33 0 68.5 13t51 38.5
t44 207.5t28.5 220q0 39 -31 68t-65 29zM833 -63q-4 -7 -24.5 -14t-40.5 -7h-216q-18 0 -37 2t-36 6t-33.5 8.5t-30 10t-26 11t-22 10t-16.5 8.5t-11 6l-4 2h-16h-64v384h64q2 0 6 1q1 0 1 1h1h1h2h1l1 1q12 4 26 10.5t37 19.5t45.5 34t36.5 46q16 26 35 105q21 85 34 99
q3 3 12.5 3t24.5 -4q16 -7 30 -23t18 -47q5 -46 -4 -98.5t-16 -72t-12 -30.5q-7 -16 2 -31q9 -14 27 -14h235q5 0 12.5 -4.5t13.5 -12.5t6 -16q0 -53 -40 -286q-16 -93 -23 -108z" />
    <glyph glyph-name="uniE645" unicode="&#xe645;" 
d="M888 514q-6 6 -14.5 8t-16.5 -0.5t-14 -9.5l-427 -454l-233 230q-10 9 -23 9t-22.5 -9.5t-9.5 -23t10 -22.5l256 -253h1q1 -1 7 -4q0 -1 1 -1.5t2 -1.5q6 -2 12 -2q7 1 12 3q1 0 2 1t2 1q5 3 7 5v0l449 479q9 9 9 22.5t-10 22.5z" />
    <glyph glyph-name="uniE646" unicode="&#xe646;" 
d="M557 299l266 264q9 9 9 22t-9 23q-6 6 -14.5 8.5t-16.5 0t-15 -8.5l-265 -264l-263 264q-9 9 -22.5 9t-23 -9t-9.5 -22.5t10 -22.5l263 -264l-265 -264q-10 -9 -10 -22.5t9.5 -22.5t22.5 -9t23 9l265 264l265 -267q10 -9 23 -9q3 0 6 0.5t6 1.5t5.5 3t5.5 4q9 10 9 23
t-9 23z" />
    <glyph glyph-name="uniE649" unicode="&#xe649;" 
d="M800 -148h-576q-40 0 -68 28t-28 68v640q0 40 28 68t68 28h448q13 0 22.5 -9.5t9.5 -22.5t-9.5 -22.5t-22.5 -9.5h-448q-13 0 -22.5 -9.5t-9.5 -22.5v-640q0 -13 9.5 -22.5t22.5 -9.5h576q13 0 22.5 9.5t9.5 22.5v512q0 13 9.5 22.5t22.5 9.5t22.5 -9.5t9.5 -22.5v-512
q0 -40 -28 -68t-68 -28zM612 364q-13 0 -23 9q-6 7 -8 15t0 16t8 15l318 318q10 9 23 9t23 -9q17 -18 5 -39q-3 -4 -5 -7l-318 -318q-10 -9 -23 -9zM480 364h-192q-13 0 -22.5 9.5t-9.5 22.5t9.5 22.5t22.5 9.5h192q13 0 22.5 -9.5t9.5 -22.5t-9.5 -22.5t-22.5 -9.5z
M672 172h-384q-13 0 -22.5 9.5t-9.5 22.5t9.5 22.5t22.5 9.5h384q13 0 22.5 -9.5t9.5 -22.5t-9.5 -22.5t-22.5 -9.5z" />
    <glyph glyph-name="uniE64B" unicode="&#xe64b;" 
d="M957 408q-2 5 -5.5 9.5t-8.5 7.5t-11 4l-271 42l-120 259q-9 18 -29 18q-21 0 -29 -18l-122 -258l-271 -41q-19 -3 -25.5 -21.5t7.5 -32.5l196 -202l-47 -285q-3 -20 13.5 -31.5t33.5 -1.5l242 133l242 -134q7 -4 15 -4h1q13 0 22.5 9.5t9.5 22.5q0 6 -2 11l-45 279
l197 201q6 7 8 15.5t-1 17.5z" />
    <glyph glyph-name="uniE64C" unicode="&#xe64c;" 
d="M767 -148q-9 1 -15 4l-242 134l-242 -133l-4 -2q-2 -1 -4 -1.5t-4 -0.5h-5q-2 0 -4 0.5t-4.5 1t-4.5 2t-3 2.5q-17 11 -14 31l47 285l-196 202q-14 14 -8 32q2 6 6 10.5t9 7.5t10 4l156 26q13 3 23.5 -5t13 -21t-5.5 -23.5t-21 -13.5l-95 -16l166 -170q11 -12 8 -28
l-39 -235l200 110q15 8 31 -1l199 -110l-38 236q-3 16 9 27l164 169l-225 34q-2 1 -4.5 1.5t-4.5 1.5l-4 2q-2 1 -3.5 2.5t-3 3.5t-2.5 3.5t-2 3.5l-100 213l-100 -212q-5 -12 -17.5 -16.5t-24.5 1t-16.5 18t0.5 24.5l130 274q8 18 29 18q9 0 17 -5t12 -13l120 -259l271 -42
q19 -3 25 -21.5t-7 -32.5l-197 -201l46 -285q1 -9 -2.5 -17.5t-11.5 -13.5q-8 -6 -18 -6z" />
    <glyph glyph-name="uniE64F" unicode="&#xe64f;" 
d="M923 364zM512 -151q-148 0 -268 89q-71 54 -116.5 130t-58 165t9.5 174.5t75 157.5q73 98 183 144.5t228.5 32.5t216.5 -87q62 -46 105 -111t61 -141q3 -12 -4 -23.5t-19 -14.5q-9 -2 -17 0.5t-14 8.5t-8 14q-11 43 -31 82.5t-48 73.5t-64 60q-83 63 -184.5 74.5
t-196 -28.5t-156.5 -123q-46 -62 -65 -135.5t-8 -149.5t49.5 -141t100.5 -112q50 -37 108.5 -56.5t117.5 -19.5t116 16.5t107.5 52t87.5 85.5q51 67 68 147q3 13 14 20.5t24 4.5t20 -14t5 -24q-7 -31 -18 -61t-26.5 -58t-34.5 -54q-54 -72 -130 -117t-165 -58
q-16 -2 -32.5 -3t-32.5 -1z" />
    <glyph glyph-name="uniE650" unicode="&#xe650;" 
d="M512 748q-146 0 -249 -103t-103 -249q0 -53 34 -127.5t76.5 -136.5t98 -130.5t80 -95.5t40.5 -44q9 -10 23 -10h1q14 0 23 11l109 125q219 268 219 408q0 146 -103 249t-249 103zM512 236q-66 0 -113 47t-47 113t47 113t113 47t113 -47t47 -113t-47 -113t-113 -47z" />
    <glyph glyph-name="uniE651" unicode="&#xe651;" 
d="M512 204q-79 0 -135.5 56.5t-56.5 135.5t56.5 135.5t135.5 56.5t135.5 -56.5t56.5 -135.5t-56.5 -135.5t-135.5 -56.5zM512 524q-53 0 -90.5 -37.5t-37.5 -90.5t37.5 -90.5t90.5 -37.5t90.5 37.5t37.5 90.5t-37.5 90.5t-90.5 37.5zM512 -148q-13 0 -22 9q-10 9 -10 22.5
t9 22.5q30 32 66 73.5t80.5 99.5t80 112.5t60 110.5t24.5 94q0 119 -84.5 203.5t-203.5 84.5t-203.5 -84.5t-84.5 -203.5q0 -57 52.5 -151.5t151.5 -215.5q9 -11 7.5 -24t-12 -21.5t-23.5 -7t-21 11.5q-219 268 -219 408q0 146 103 249t249 103t249 -103t103 -249
q0 -53 -34 -127.5t-76.5 -136.5t-98 -130.5t-80 -95.5t-40.5 -44q-9 -10 -23 -10z" />
    <glyph glyph-name="uniE652" unicode="&#xe652;" 
d="M369 -18v-1q-2 0 -4.5 -0.5t-4.5 -0.5h-2h-3h-3q-52 0 -89 36.5t-38 88.5q-2 53 34 91q37 39 89 40h2h2q20 0 38.5 -6t35.5 -18q46 -16 92 45t19 95q-9 7 -18 17q-2 1 -3 3q-31 35 -33 80q-1 53 35 91t89 40h1h3q44 0 78.5 -28t44.5 -71q4 -14 7 -30.5t2 -50t-9 -68.5
t-31 -83t-59 -96q-41 -55 -85 -93t-81.5 -54t-62.5 -21.5t-46 -5.5zM365 46q7 0 16 1t26.5 4.5t37.5 13.5t43.5 25.5t51 42t53.5 61.5q38 52 59.5 101.5t24 85.5t1 54.5t-5.5 31.5q-2 9 -6 17t-10 14.5t-13 11t-15.5 7t-17.5 2.5q-27 -1 -45 -20t-18 -45q1 -23 17 -40v-1
q3 -3 6 -5.5t6 -4.5q4 -3 6 -6q5 -4 8.5 -9.5t8 -14t7 -17.5t4 -20.5t0 -24.5t-5.5 -27.5t-13 -31t-22 -33.5q-55 -74 -124 -74q-24 0 -47 9q-4 2 -8 5q-17 14 -38 14q-28 -1 -46 -20t-17 -45q0 -13 5 -24.5t13.5 -19.5t20 -13t24.5 -5q1 1 3 1q6 0 10 -1zM512 -151
q-91 0 -174 35q-12 5 -17 17t0 24.5t17.5 17.5t24.5 0q71 -30 149 -30q104 0 192.5 51.5t140 140t51.5 192.5q0 39 -8 77t-22.5 72t-35.5 65t-46.5 57t-57 47t-65.5 35.5t-72 22.5t-77 8q-104 0 -192.5 -51.5t-140 -140t-51.5 -192.5q0 -111 59 -204q4 -8 4.5 -16.5
t-3.5 -16t-11 -11.5q-12 -7 -25 -4t-20 14q-68 109 -68 238q0 73 22.5 141t64 123t96.5 96.5t123.5 64.5t141.5 23q91 0 174 -35.5t143 -95.5t95.5 -143t35.5 -174t-35.5 -174t-95.5 -143t-143 -95.5t-174 -35.5z" />
    <glyph glyph-name="uniE656" unicode="&#xe656;" 
d="M512 746q-91 0 -173.5 -35.5t-142 -95t-95 -142t-35.5 -173.5q0 -61 16 -118.5t45 -106.5t70 -90t90 -70t106.5 -45t118.5 -16q91 0 173.5 35.5t142 95t95 142t35.5 173.5t-35.5 173.5t-95 142t-142 95t-173.5 35.5zM727 374l-256 -259v-1q-2 -2 -6 -4q-1 0 -1.5 -0.5
t-1.5 -1t-2 -1.5q-6 -2 -12 -2t-12 2l-2 2q-1 0 -1 1q-6 3 -7 4v1h-1l-126 129q-6 6 -8 14.5t0.5 16.5t8.5 15q9 9 22.5 8.5t22.5 -9.5l103 -106l234 236q9 9 22.5 9t22.5 -9t9.5 -22.5t-9.5 -22.5z" />
    <glyph glyph-name="uniE657" unicode="&#xe657;" 
d="M512 268zM416 268q0 40 28 68t68 28t68 -28t28 -68t-28 -68t-68 -28t-68 28t-28 68zM774 524h-390q0 14 -9 23t-23 9h-64q-14 0 -23 -9t-9 -23h-6q-39 0 -64.5 -25.5t-25.5 -64.5v-332q0 -39 25.5 -64.5t64.5 -25.5h524q26 0 46.5 11.5t32 32t11.5 46.5v332
q0 39 -25.5 64.5t-64.5 25.5zM512 108q-67 0 -113.5 46.5t-46.5 113.5t46.5 113.5t113.5 46.5t113.5 -46.5t46.5 -113.5t-46.5 -113.5t-113.5 -46.5zM736 364q-14 0 -23 9t-9 23t9 23t23 9t23 -9t9 -23t-9 -23t-23 -9z" />
    <glyph glyph-name="uniE658" unicode="&#xe658;" 
d="M774 524h-390q0 14 -9 23t-23 9h-64q-14 0 -23 -9t-9 -23h-6q-39 0 -64.5 -25.5t-25.5 -64.5v-332q0 -39 25.5 -64.5t64.5 -25.5h524q26 0 46.5 11.5t32 32t11.5 46.5v332q0 39 -25.5 64.5t-64.5 25.5zM800 102q0 -10 -8 -18t-18 -8h-524q-17 0 -24 17q-2 5 -2 9v332
q0 7 3.5 13t9.5 9.5t13 3.5h524q10 0 18 -8t8 -18v-332zM512 428q-67 0 -113.5 -46.5t-46.5 -113.5t46.5 -113.5t113.5 -46.5t113.5 46.5t46.5 113.5t-46.5 113.5t-113.5 46.5zM512 172q-38 0 -67 29t-29 67t29 67t67 29t67 -29t29 -67t-29 -67t-67 -29zM736 396zM704 396
q0 13 9.5 22.5t22.5 9.5t22.5 -9.5t9.5 -22.5t-9.5 -22.5t-22.5 -9.5t-22.5 9.5t-9.5 22.5z" />
    <glyph glyph-name="uniE659" unicode="&#xe659;" 
d="M512 -148q-185 0 -316.5 131.5t-131.5 316.5t131.5 316.5t316.5 131.5t316.5 -131.5t131.5 -316.5t-131.5 -316.5t-316.5 -131.5zM512 684q-104 0 -192.5 -51.5t-140 -140t-51.5 -192.5t51.5 -192.5t140 -140t192.5 -51.5t192.5 51.5t140 140t51.5 192.5t-51.5 192.5
t-140 140t-192.5 51.5zM557 299l138 136q10 10 10 23t-9.5 22.5t-22.5 9.5t-23 -9l-138 -137l-137 137q-6 6 -14 8t-16.5 0t-14.5 -8q-9 -9 -9 -22.5t9 -22.5l136 -137l-137 -136q-9 -9 -9.5 -22.5t9.5 -22.5t22 -10q7 0 12.5 2.5t10.5 7.5l138 136l138 -140q10 -9 23 -9
t22.5 9.5t9.5 22.5t-9 23z" />
    <glyph glyph-name="uniE65A" unicode="&#xe65a;" 
d="M512 748q-185 0 -316.5 -131.5t-131.5 -316.5t131.5 -316.5t316.5 -131.5t316.5 131.5t131.5 316.5t-131.5 316.5t-316.5 131.5zM662 276l-160 -158q-10 -10 -23 -10q-6 0 -12 2.5t-11 7.5q-6 6 -8 14t0 16.5t9 14.5l137 136l-136 137q-10 9 -10 22.5t10 22.5q6 6 14 8
t16.5 0t14.5 -8l159 -160v0q4 -4 7 -10q7 -20 -7 -35z" />
    <glyph glyph-name="uniE65B" unicode="&#xe65b;" 
d="M512 620q-134 0 -227 -93t-93 -227t93 -227t227 -93t227 93t93 227t-93 227t-227 93zM512 44q-106 0 -181 75t-75 181t75 181t181 75t181 -75t75 -181t-75 -181t-181 -75zM544 313v179q0 14 -9 23t-23 9t-23 -9t-9 -23v-192q0 -3 2 -8l2 -10q2 -5 2 -8l103 -102
q4 -4 9 -5t16.5 -1t16.5 1t9 5q10 10 10 22.5t-10 22.5zM365 620q0 3 -3.5 9.5t-3.5 9.5q-18 16 -44 21.5t-52 0t-44 -21.5l-45 -45q-24 -28 -24 -70t24 -70q2 0 5.5 -2t7 -3.5t6.5 -1.5q16 38 42 71.5t59.5 59.5t71.5 42zM851 594l-45 45q-28 29 -66.5 29t-67.5 -29
q-3 -2 -4.5 -5.5t-3.5 -7t-5 -6.5q128 -64 173 -173q3 3 9.5 6.5t9.5 6.5q24 24 24 65t-24 69zM262 31l-25 -25q-7 -7 -9 -15t0 -16t9 -14q4 -5 9 -6t16 -1q20 0 26 7l26 25q9 10 9 23t-9.5 22.5t-25.5 9.5t-26 -10zM762 31q-7 7 -15 9t-16 0t-14 -9q-10 -9 -10 -22t10 -23
l25 -25q2 -2 4.5 -3.5t4 -2t5 -0.5t5.5 -0.5t7 -0.5q11 0 16 1t10 6q9 9 9 22t-9 23z" />
    <glyph glyph-name="uniE65C" unicode="&#xe65c;" 
d="M954 -96l-153 163q96 116 96 265q0 38 -7 75t-19.5 70.5t-30.5 64.5t-41 58t-50 50t-58.5 41t-65 31t-70 19.5t-74.5 6.5q-113 0 -209 -55.5t-151.5 -151.5t-55.5 -209t55.5 -208.5t151.5 -151.5t209 -56q90 0 172 37q12 6 16.5 18.5t-0.5 24.5q-4 8 -11 13t-15 5.5
t-17 -2.5q-69 -32 -145 -32q-96 0 -177 47.5t-128 128.5t-47 176q0 72 28 137t75 112t112 75t137 28q95 0 176 -47t128.5 -128t47.5 -177q0 -141 -98 -244q-9 -9 -9 -22.5t10 -22.5l1 -1t1.5 -1t1.5 -1.5t1 -2.5l166 -177q9 -10 23 -10q13 1 22 9q10 9 10.5 22t-8.5 23z" />
    <glyph glyph-name="uniE65D" unicode="&#xe65d;" 
d="M224 171.5q0 26.5 18.5 45t45 18.5t45.5 -18.5t19 -45t-19 -45t-45.5 -18.5t-45 18.5t-18.5 45zM673 171.5q0 26.5 18.5 45t45 18.5t45.5 -18.5t19 -44.5q0 -18 -9 -32.5t-23.5 -23t-31.5 -8.5q-27 0 -45.5 18.5t-18.5 45zM705 300h-384q-13 0 -22.5 9.5t-9.5 22.5
t9.5 22.5t22.5 9.5h384q9 0 16 -4.5t11.5 -11.5t4.5 -16q0 -13 -9.5 -22.5t-22.5 -9.5zM896 360v5q0 4 -1 7l-32 159q0 2 -0.5 4t-1.5 3q-16 34 -53 58t-72 24h-35v2l-1 4l-19 62q-3 12 -10.5 23.5t-18.5 19.5t-24.5 12.5t-28.5 4.5h-174q-29 0 -52 -17t-29 -41l-20 -63v-5
v-2h-36q-18 0 -36 -5t-35.5 -15t-32 -26.5t-22.5 -37.5q0 -1 -0.5 -2.5t-0.5 -2.5l-32 -160q-1 -3 -1 -7v-4q-28 -11 -46 -35.5t-18 -55.5v-195q0 -39 28 -66.5t68 -27.5h32v-2q0 -35 17 -64.5t46.5 -46.5t64.5 -17q53 0 90.5 37.5t37.5 90.5v2h128v-2q0 -35 17 -64.5
t46.5 -46.5t64.5 -17q53 0 90.5 37.5t37.5 90.5v2h32q40 0 68 27t28 67v195q0 21 -8 39.5t-22.5 31.5t-33.5 20zM406 674q1 3 6.5 6.5t12.5 3.5h174q5 0 9.5 -2t7 -5t3.5 -6l16 -51h-246zM896 74q0 -8 -4 -15t-11.5 -11t-16.5 -4h-64q-13 0 -22.5 -9.5t-9.5 -22.5v-34
q0 -26 -19 -45t-45 -19t-45 19t-19 45v34q0 13 -9.5 22.5t-22.5 9.5h-192q-13 0 -22.5 -9.5t-9.5 -22.5v-34q0 -26 -19 -45t-45 -19t-45 19t-19 45v34q0 13 -9.5 22.5t-22.5 9.5h-64q-14 0 -23 8.5t-9 21.5v195q0 5 1 9t3.5 7.5t5.5 6.5t6.5 5t7.5 3t9 1q6 0 12 2.5t10.5 7
t7 10.5t2.5 13l-1 28l31 153q5 13 16 22.5t24 14t25 4.5h448q8 0 17.5 -3.5t18.5 -9.5t17 -13.5t13 -15.5l30 -152v-29q0 -13 9.5 -22.5t22.5 -9.5q7 0 12.5 -2.5t10 -6.5t7 -10t2.5 -13v-195z" />
    <glyph glyph-name="uniE660" unicode="&#xe660;" 
d="M512 684q-158 0 -271 -113t-113 -271t113 -271t271 -113t271 113t113 271t-113 271t-271 113zM730 402l-256 -256q-7 -6 -26 -6h-12q-3 0 -7 1.5t-7 4.5l-128 128q-3 4 -5.5 8.5t-3.5 9.5t0 9.5t3.5 9t6 8.5t8 6.5t9.5 3t9.5 0t9 -3t8.5 -6.5l109 -102l230 230
q5 5 11 7.5t12 2.5t11.5 -2.5t10.5 -7.5q19 -19 7 -45z" />
    <glyph glyph-name="uniE661" unicode="&#xe661;" 
d="M512 684q-158 0 -271 -113t-113 -271t113 -271t271 -113t271 113t113 271t-113 271t-271 113zM512 -20q-134 0 -227 93t-93 227t93 227t227 93t227 -93t93 -227t-93 -227t-227 -93zM678 454l-230 -237l-102 109q-4 3 -8.5 5.5t-9.5 3.5t-9.5 0t-9 -3.5t-8.5 -6t-6.5 -8
t-3 -9.5t0 -9.5t3 -9t6.5 -8.5l128 -128q6 -7 25 -7q6 0 9 0.5t6.5 1t6 1.5t4.5 4l256 256q10 9 10 22t-10 23q-6 6 -17.5 7t-22 -1.5t-18.5 -5.5z" />
    <glyph glyph-name="uniE662" unicode="&#xe662;" 
d="M943 43l-341 609q-35 63 -90.5 63t-90.5 -63l-340 -609q-34 -62 -6 -111q29 -48 100 -48h674q71 0 99.5 48.5t-5.5 110.5zM480 492q0 13 9.5 22.5t22.5 9.5t22.5 -9.5t9.5 -22.5v-288q0 -13 -9.5 -22.5t-22.5 -9.5t-22.5 9.5t-9.5 22.5v288zM512 -20q-20 0 -34 14t-14 34
t14 34t34 14t34 -14t14 -34t-14 -34t-34 -14z" />
    <glyph glyph-name="uniE663" unicode="&#xe663;" 
d="M849 -117h-674q-71 0 -99.5 49t5.5 111l340 609q35 63 91 63q13 0 25.5 -4t24 -12t22 -20t18.5 -27l341 -609q34 -63 5.5 -111.5t-99.5 -48.5zM512 651q-9 0 -18 -8t-17 -22l-340 -610q-17 -30 -7 -47t45 -17h674q35 0 45 17t-7 47l-341 610q-16 30 -34 30zM512 172
q-13 0 -22.5 9.5t-9.5 22.5v288q0 13 9.5 22.5t22.5 9.5t22.5 -9.5t9.5 -22.5v-288q0 -13 -9.5 -22.5t-22.5 -9.5zM512 60zM464 60q0 13 6.5 24t17.5 17.5t24 6.5t24 -6.5t17.5 -17.5t6.5 -24q0 -20 -14 -34t-34 -14t-34 14t-14 34z" />
    <glyph glyph-name="uniE664" unicode="&#xe664;" 
d="M864 620h-352q0 40 -28 68t-68 28h-64q-40 0 -68 -28t-28 -68h-96q-40 0 -68 -28t-28 -68v-512q0 -40 28 -68t68 -28h704q40 0 68 28t28 68v512q0 40 -28 68t-68 28zM512 76q-79 0 -135.5 56.5t-56.5 135.5t56.5 135.5t135.5 56.5t135.5 -56.5t56.5 -135.5t-56.5 -135.5
t-135.5 -56.5zM816 396q-20 0 -34 14t-14 34t14 34t34 14t34 -14t14 -34t-14 -34t-34 -14z" />
    <glyph glyph-name="uniE665" unicode="&#xe665;" 
d="M448 140q-19 0 -26 6q-9 10 -9 23t9 22l109 109l-109 102q-3 4 -5.5 8.5t-3.5 9.5t0 9.5t3.5 9t6 8.5t8 6.5t9.5 3t9.5 0t9 -3t8.5 -6.5l128 -128q10 -9 10 -22t-10 -23l-128 -128q0 -6 -19 -6z" />
    <glyph glyph-name="uniE666" unicode="&#xe666;" 
d="M576 140q-19 0 -26 6l-128 128q-3 4 -5.5 8.5t-3.5 9.5t0 9.5t3.5 9t5.5 8.5l128 128q7 7 15 9t16 0t14 -9q10 -9 10 -22t-10 -23l-102 -102l102 -102q10 -10 10 -23t-10 -22q0 -13 -19 -13z" />
    <glyph glyph-name="uniE667" unicode="&#xe667;" 
d="M742 121q-19 19 -38 0q-13 -13 -26.5 -24t-28.5 -20.5t-30.5 -16.5t-32 -12t-33.5 -7.5t-35 -2.5q-94 0 -165 58t-91 146h45q11 0 16.5 11.5t-3.5 20.5l-77 109q-5 10 -16 10t-16 -10l-77 -109q-5 -6 -4.5 -13.5t7.5 -13t17 -5.5h51q14 -110 103 -186t204 -76
q134 0 230 96q5 10 5 22.5t-5 22.5zM282 479q19 -19 38 0q74 83 192 83q94 0 165 -58t91 -146h-45q-13 0 -19 -11.5t0 -20.5l77 -109q5 -10 16 -10t16 10l77 109q5 6 4.5 13.5t-7.5 13t-17 5.5h-51q-14 110 -103 186t-204 76q-124 0 -230 -96q-12 -22 0 -45zM627 255
q0 -19 -16 -35t-35 -16h-128q-28 0 -44 28q-7 12 -7 23v83q0 29 28 45q12 6 23 7h128q19 0 35 -16t16 -36v-83zM627 255z" />
    <glyph glyph-name="uniE668" unicode="&#xe668;" 
d="M736 684q-102 0 -176 -70q-6 -5 -48 -48l-47 47q-74 71 -177 71q-106 0 -181 -75t-75 -181q0 -100 76 -182l317 -321q42 -41 87 -41t87 42l316 320l3 2q25 31 37.5 49.5t24.5 54t12 76.5q0 106 -75 181t-181 75z" />
    <glyph glyph-name="uniE669" unicode="&#xe669;" 
d="M512 -116q-45 0 -87 41l-319 323q-19 24 -28.5 37.5t-22 36.5t-18 49t-5.5 57q0 106 75 181t181 75q40 0 77.5 -12t69.5 -35q11 -7 13.5 -20t-5.5 -24t-21 -13.5t-24 5.5q-24 17 -52 26t-58 9q-79 0 -135.5 -56.5t-56.5 -135.5q0 -43 13 -70t46 -69l316 -319
q22 -22 41 -22q18 0 41 23l317 320q58 62 58 137q0 79 -56.5 135.5t-135.5 56.5q-75 0 -130 -50l-134 -134q-9 -10 -22 -10t-23 10q-6 6 -8 14t0 16.5t8 14.5l135 135q75 68 174 68q106 0 181 -75t75 -181q0 -100 -76 -182l-317 -320q-42 -42 -87 -42z" />
    <glyph glyph-name="uniE66A" unicode="&#xe66a;" 
d="M526 -112q-15 0 -32.5 9.5t-36.5 27.5l-182 183h-83q-40 0 -68 28t-28 68v192q0 40 28 68t68 28h83l182 183q37 37 69 37q13 0 23.5 -5.5t18.5 -19.5t8 -35v-704q0 -31 -15 -45.5t-35 -14.5zM688 82h-4h-4l-4 2q-2 0 -3.5 1t-3.5 3q-11 7 -13 20.5t6 23.5l12 18
q22 29 32 45t20 45t10 60q0 33 -9 60.5t-18.5 42.5t-29.5 42q-10 13 -17 23q-8 10 -6 23.5t13 20.5q7 5 15.5 6t16.5 -2.5t13 -10.5q3 -5 6.5 -9.5t9.5 -11.5q23 -31 34.5 -49.5t23.5 -55.5t12 -79q0 -41 -13 -79t-25 -57.5t-36 -51.5l-12 -17q-10 -13 -26 -13zM796 -27
q-12 0 -21 8q-10 9 -10.5 22t7.5 23q38 43 62 78.5t43 88t19 107.5q0 80 -33 144t-91 130q-8 10 -7.5 23t10.5 22q7 6 15.5 7.5t16.5 -1t14 -9.5q63 -73 101 -147.5t38 -168.5t-38 -168.5t-101 -147.5q-10 -11 -25 -11z" />
    <glyph glyph-name="uniE66B" unicode="&#xe66b;" 
d="M526 -112q-15 0 -32.5 9.5t-36.5 27.5l-182 183h-83q-40 0 -68 28t-28 68v192q0 40 28 68t68 28h83l182 183q37 37 69 37q13 0 23.5 -5.5t18.5 -19.5t8 -35v-704q0 -31 -15 -45.5t-35 -14.5zM192 428q-13 0 -22.5 -9.5t-9.5 -22.5v-192q0 -13 9.5 -22.5t22.5 -9.5h96
q13 0 23 -9l192 -192l9 -9v676q-5 -4 -9 -9l-192 -192q-10 -9 -23 -9h-96zM688 82h-4h-4l-4 2q-2 0 -3.5 1t-3.5 3q-11 7 -13 20.5t6 23.5l12 18q22 29 32 45t20 45t10 60q0 33 -9 60.5t-18.5 42.5t-29.5 42q-10 13 -17 23q-8 10 -6 23.5t13 20.5q7 5 15.5 6t16.5 -2.5
t13 -10.5q3 -5 6.5 -9.5t9.5 -11.5q23 -31 34.5 -49.5t23.5 -55.5t12 -79q0 -41 -13 -79t-25 -57.5t-36 -51.5l-12 -17q-10 -13 -26 -13zM796 -27q-12 0 -21 8q-10 9 -10.5 22t7.5 23q38 43 62 78.5t43 88t19 107.5q0 80 -33 144t-91 130q-8 10 -7.5 23t10.5 22
q7 6 15.5 7.5t16.5 -1t14 -9.5q63 -73 101 -147.5t38 -168.5t-38 -168.5t-101 -147.5q-10 -11 -25 -11z" />
    <glyph glyph-name="uniE66C" unicode="&#xe66c;" 
d="M813 313l-288 288q-19 19 -45 19h-224q-29 0 -46.5 -17.5t-17.5 -46.5v-224q0 -6 1 -11t2.5 -9.5t3.5 -8.5t5 -8t7 -8l288 -288q19 -19 45 -19t45 19l224 224q19 19 19 45t-19 45zM384 428q-14 -14 -35 -14t-35.5 14t-14.5 35t14.5 35.5t35.5 14.5t35 -14.5t14 -35.5
t-14 -35z" />
    <glyph glyph-name="uniE671" unicode="&#xe671;" 
d="M352 236h-128q-13 0 -22.5 9.5t-9.5 22.5t9.5 22.5t22.5 9.5h96v96q0 13 9.5 22.5t22.5 9.5t22.5 -9.5t9.5 -22.5v-128q0 -13 -9.5 -22.5t-22.5 -9.5zM702 145q-46 0 -81.5 -28.5t-45.5 -72.5h-124q-7 29 -25 52t-45 36t-57 13q-27 0 -51 -10.5t-42 -28t-28 -41.5
t-10 -51q0 -54 38 -92.5t93 -38.5q44 0 79 27.5t47 69.5h126q12 -42 46.5 -69.5t79.5 -27.5q54 0 92.5 38.5t38.5 92.5t-38.5 92.5t-92.5 38.5zM323.5 -53q-27.5 0 -47 19.5t-19.5 47.5q0 11 3 21.5t9.5 18.5t14.5 14t18.5 9.5t21.5 3.5q27 0 47 -19.5t20 -47.5t-20 -47.5
t-47.5 -19.5zM702 -53q-18 0 -33.5 9t-24.5 24.5t-9 33.5t9 33.5t24.5 24.5t33.5 9q28 0 47.5 -19.5t19.5 -47.5q0 -18 -9 -33.5t-24.5 -24.5t-33.5 -9zM864 716h-464q-13 0 -25.5 -4t-22 -11.5t-17 -17t-11.5 -22t-4 -25.5v-92l-195 -98l-4 -2q-56 -40 -56 -112v-322
q0 -13 9.5 -22.5t23 -9.5t22.5 9.5t9 22.5v322q0 38 27 58l210 105l2 2l2 1q4 3 5 4.5t3 3.5l1 1l3 6q0 2 1 6v2l1 3v112q0 5 2 8.5t5.5 5.5t8.5 2h464q13 0 22.5 -9.5t9.5 -23.5v-607q0 -13 9.5 -22.5t22.5 -9.5t22.5 9.5t9.5 22.5v607q0 40 -28 68.5t-68 28.5z" />
    <glyph glyph-name="uniE672" unicode="&#xe672;" 
d="M406 -120q-7 0 -13.5 2.5t-10.5 8.5q-24 26 -55.5 45t-57.5 28t-53.5 14t-38 6t-16.5 1q-13 0 -22.5 9t-9.5 22.5t9 23t22 9.5q6 0 21 -1t47 -7t64 -17t70 -34.5t67 -56.5q5 -5 7 -11t1.5 -12t-3 -12t-7.5 -10q-9 -8 -21 -8zM620 -120q-12 0 -22 8q-9 9 -9.5 22.5
t8.5 23.5q30 32 68.5 56t70 34.5t63.5 16.5t46 7t21 1q13 0 22 -9.5t9 -23t-9.5 -22.5t-22.5 -9v0q-6 0 -16 -0.5t-37.5 -6t-53.5 -14.5t-58 -28.5t-56 -45.5q-2 -2 -4.5 -3.5t-4.5 -3t-5 -1.5l-4 -2h-6zM564 43h-102h-4q-3 0 -5 1q-81 11 -148 56.5t-112 121.5
q-51 87 -62 191t23 186q4 9 12 14t17 5h10q91 0 169 -34q29 52 60.5 90.5t67.5 64.5q4 3 8 5q16 7 31 -2l4 -4q36 -26 67 -64.5t60 -91.5q39 18 82.5 27t90.5 9h10q4 0 7.5 -1t6.5 -2.5t6 -4t5 -5.5l4 -6q34 -82 23 -186t-62 -192q-30 -50 -70 -87t-88 -60t-102 -30
q-5 -1 -9 -1zM468 107h90h2q140 16 217 147q41 69 52.5 151.5t-9.5 148.5q-88 -3 -159 -42q-12 -7 -25 -3t-19 17q-49 99 -106 148q-15 -12 -28.5 -27.5t-27 -34t-26 -39.5t-24.5 -45q-6 -13 -19 -17t-25 3q-70 38 -155 40q-21 -66 -9.5 -148.5t52.5 -151.5
q77 -131 217 -147h2zM513 -148q-13 0 -22.5 9.5t-9.5 22.5v191q0 13 9.5 22.5t22.5 9.5t22.5 -9.5t9.5 -22.5v-191q0 -13 -9.5 -22.5t-22.5 -9.5z" />
    <glyph glyph-name="uniE673" unicode="&#xe673;" 
d="M799 -88h-639q-26 0 -48 12.5t-35 35t-13 48.5v578q0 40 28 68t68 28h642q40 0 68 -28t28 -68v-94q0 -13 -9 -22.5t-23 -9.5q-8 0 -15.5 4.5t-12 11.5t-4.5 16v94q0 5 -1.5 10t-4.5 9t-7 7t-8.5 4.5t-10.5 1.5h-642q-4 0 -8.5 -1t-8 -3t-6.5 -5t-5 -6.5t-3 -8t-1 -8.5
v-578q0 -9 4.5 -16.5t11.5 -11.5t16 -4h639q14 0 23 9t9 23v98q0 14 9.5 23t23 9t22.5 -9t9 -23v-98q0 -40 -28 -68t-68 -28zM661 298zM630 298q0 8 4.5 15.5t11.5 11.5t15 4q13 0 22.5 -9t9.5 -22q0 -9 -4.5 -16t-11.5 -11t-16 -4q-12 0 -21.5 9t-9.5 22zM896 172h-320
q-26 0 -45 19t-19 45v128q0 26 19 45t45 19h320q26 0 45 -19t19 -45v-128q0 -26 -19 -45t-45 -19zM576 364v-128h320v128h-320z" />
    <glyph glyph-name="uniE675" unicode="&#xe675;" 
d="M287 300h-62q-13 0 -22.5 9.5t-9.5 22.5q0 9 4.5 16t11.5 11.5t16 4.5h62q13 0 22.5 -9.5t9.5 -22.5t-9.5 -22.5t-22.5 -9.5zM883 684h-742q-32 0 -54.5 -22.5t-22.5 -54.5v-155v-8v-458q0 -10 2.5 -19t7 -16.5t11 -14t14.5 -11t17.5 -7t18.5 -2.5h754q29 0 50 20.5
t21 49.5v458v163q0 32 -22.5 54.5t-54.5 22.5zM896 607v-131h-223v144h210q3 0 6 -2t5 -5t2 -6zM447 620h162v-360l-71 28q-2 1 -4 1.5t-4 0.5h-4h-4q-2 0 -4 -1t-4 -1l-67 -28v360zM128 607q0 5 4 9t9 4h242v-144h-255v131zM889 -20h-754q-7 0 -7 6v426h255v-200
q0 -17 14 -26q3 -2 5.5 -3t6 -2t6.5 -1h4l4 2q2 0 4 1l99 40l103 -40q3 -2 6 -2.5t6 -0.5t6 1l6 2q3 1 5 3q15 9 15 26v200h223v-426q0 -2 -1 -3t-2.5 -2t-3.5 -1z" />
    <glyph glyph-name="uniE676" unicode="&#xe676;" 
d="M953 459v1v1q-1 3 -2 5l-75 187q-6 19 -20 33t-33 21.5t-41 7.5h-527q-21 0 -39.5 -7.5t-31.5 -21t-20 -32.5l-80 -190q0 -1 -0.5 -2t-0.5 -3q-3 -6 -4.5 -13t-2.5 -14t-1.5 -14t-0.5 -13q0 -49 25 -91t68 -65v0v0q36 -19 83 -19q82 0 134 63q52 -62 134 -63q81 1 133 63
q52 -62 135 -62q48 0 84 20q42 23 66.5 64.5t24.5 89.5q0 7 -0.5 14t-1.5 14t-2.5 13.5t-3.5 12.5zM839 307q-5 -3 -11.5 -5.5t-13 -4t-14 -2t-15.5 -0.5q-29 0 -54 14t-41 39q-4 8 -8 13q-12 13 -31 13q-20 0 -31 -13q-4 -5 -8 -13q-16 -25 -40.5 -39t-53.5 -15
q-14 1 -28 4.5t-26 10.5t-22.5 17t-18.5 22q-4 8 -7 12q-11 13 -31.5 13t-30.5 -12q-5 -5 -9 -14q-8 -12 -18.5 -22t-22.5 -17t-26 -10.5t-28 -3.5q-31 0 -53 12v0q-13 7 -24.5 17.5t-19 23t-11.5 27.5t-4 30q0 19 6 37q0 1 0.5 1.5t0.5 1.5l79 188q7 19 31 19h527
q27 -2 34 -21l74 -185v-2l1 -1q6 -18 6 -37q0 -20 -7 -39t-20 -34.5t-31 -24.5zM863 204q-13 0 -22.5 -9.5t-9.5 -22.5v-175q0 -7 -5 -12.5t-13 -5.5h-602q-7 0 -12.5 5t-5.5 13v171q0 14 -9.5 23t-22.5 9t-22.5 -9t-9.5 -23v-171q0 -22 11 -41t30 -30t41 -11h602
q22 0 41 11t30 30t11 41v175q0 13 -9.5 22.5t-22.5 9.5zM768 428h-512q-13 0 -22.5 9.5t-9.5 22.5t9.5 22.5t22.5 9.5h512q13 0 22.5 -9.5t9.5 -22.5t-9.5 -22.5t-22.5 -9.5z" />
    <glyph glyph-name="uniE677" unicode="&#xe677;" 
d="M430 -145q-11 0 -22 3t-20.5 8.5t-17.5 13.5l-68 70q-9 10 -9 23t10 23q11 10 16.5 23.5t5.5 28.5q0 8 -1 15t-4 13.5t-7 13t-9 11.5q-21 21 -52.5 21.5t-52.5 -20.5q-10 -9 -23 -9q-14 0 -23 10l-68 70q-24 25 -23.5 59.5t25.5 58.5l443 435q16 15 38 20.5t43.5 -0.5
t37.5 -21l68 -71q9 -9 8.5 -22.5t-9.5 -22.5q-22 -22 -22.5 -52.5t21.5 -52.5q21 -22 52.5 -22.5t52.5 20.5q5 5 10.5 7t12.5 2q3 0 6.5 -0.5t6 -1.5t5 -3t5.5 -4l68 -70q7 -8 12.5 -17.5t8.5 -20t2 -21.5q0 -35 -25 -60l-443 -434q-12 -12 -27 -18t-32 -6zM368 -25l48 -50
q6 -6 14 -6t14 6l443 434q6 6 6 14q0 4 -1 7.5t-4 6.5l-49 50q-7 -5 -16 -8.5t-18 -6t-18 -4t-19 -1.5q-58 0 -99 42q-40 41 -39 98q0 40 21 73l-48 50q-6 5 -14 5.5t-14 -5.5l-444 -434q-2 -2 -3 -4l-2 -6q-1 -2 -1 -4q0 -8 6 -14l48 -50q33 20 72 20q28 0 53.5 -11
t45.5 -31q40 -41 39 -99q0 -39 -21 -72zM354 229q-6 0 -12 2.5t-10 6.5q-7 6 -9 14.5t0 16.5t9 14l178 179q10 9 23 9t22.5 -9t9.5 -22.5t-9 -22.5l-179 -179q-10 -9 -23 -9zM450 133q-3 0 -6 0.5t-6 2t-5.5 3t-5.5 4.5q-9 9 -9 22t9 23l179 178q9 10 22.5 10t22.5 -9.5
t9 -22.5t-9 -23l-179 -178q-9 -10 -22 -10z" />
    <glyph glyph-name="uniE678" unicode="&#xe678;" 
d="M528 284q-20 0 -34 14t-14 34v64q0 20 14 34t34 14t34 -14t14 -34v-64q0 -20 -14 -34t-34 -14zM719 284q-20 0 -34 14t-14 34v64q0 20 14 34t34 14q13 0 24 -6.5t17.5 -17.5t6.5 -24v-64q0 -13 -6.5 -24t-17.5 -17.5t-24 -6.5zM512 744q-123 0 -228 -62q-61 66 -159 66
q-18 0 -28 -17q-4 -7 -3.5 -16t4.5 -16q1 -1 4 -6.5t9 -18.5t11 -28t10.5 -38t7.5 -46q1 -12 10.5 -20.5t21.5 -8.5h2h1q9 1 16 6t10.5 13t2.5 17q-6 55 -25 106q14 -4 25.5 -10.5t23.5 -17.5t22 -25v-1l3 -3l1 -1l4 -5q1 0 7 -2l2 -1q2 -1 3 -1h6h6q2 0 4 1q1 1 2 1l2 1
l4 1v1h1q98 67 217 67q104 0 192.5 -51t140 -139.5t51.5 -192.5t-51.5 -192.5t-140 -140t-192.5 -51.5q-151 0 -262 104q-108 101 -120 248q-2 16 -2 32q0 81 33 155q3 9 2.5 17t-5.5 15t-13 11q-5 2 -10 2.5t-10 -0.5t-9 -3.5t-7.5 -6.5t-5.5 -9q-39 -86 -39 -181
q0 -91 35.5 -174t95.5 -143t143 -95.5t174 -35.5t174 35.5t143 95.5t95.5 143t35.5 174t-35.5 173.5t-95.5 142.5t-143 95.5t-174 35.5z" />
    <glyph glyph-name="uniE679" unicode="&#xe679;" 
d="M672 -100q-20 0 -34 14l-352 352q-14 14 -14 34t14 34l352 352q9 9 21.5 12.5t25 0t21.5 -12.5t12.5 -21.5t0 -25t-12.5 -21.5l-318 -318l318 -318q9 -9 12.5 -21.5t0 -25t-12.5 -21.5q-7 -7 -16 -10.5t-18 -3.5z" />
    <glyph glyph-name="uniE67C" unicode="&#xe67c;" 
d="M384 332h-192q-40 0 -68 28t-28 68v192q0 40 28 68t68 28h192q40 0 68 -28t28 -68v-192q0 -40 -28 -68t-68 -28zM192 652q-13 0 -22.5 -9.5t-9.5 -22.5v-192q0 -13 9.5 -22.5t22.5 -9.5h192q13 0 22.5 9.5t9.5 22.5v192q0 13 -9.5 22.5t-22.5 9.5h-192zM384 -116h-192
q-40 0 -68 28t-28 68v192q0 40 28 68t68 28h192q40 0 68 -28t28 -68v-192q0 -40 -28 -68t-68 -28zM192 204q-13 0 -22.5 -9.5t-9.5 -22.5v-192q0 -13 9.5 -22.5t22.5 -9.5h192q13 0 22.5 9.5t9.5 22.5v192q0 13 -9.5 22.5t-22.5 9.5h-192zM832 -116h-192q-40 0 -68 28
t-28 68v64q0 40 28 68t68 28h192q40 0 68 -28t28 -68v-64q0 -40 -28 -68t-68 -28zM640 76q-13 0 -22.5 -9.5t-9.5 -22.5v-64q0 -13 9.5 -22.5t22.5 -9.5h192q13 0 22.5 9.5t9.5 22.5v64q0 13 -9.5 22.5t-22.5 9.5h-192zM832 204h-192q-40 0 -68 28t-28 68v320q0 40 28 68
t68 28h192q40 0 68 -28t28 -68v-320q0 -40 -28 -68t-68 -28zM640 652q-13 0 -22.5 -9.5t-9.5 -22.5v-320q0 -13 9.5 -22.5t22.5 -9.5h192q13 0 22.5 9.5t9.5 22.5v320q0 13 -9.5 22.5t-22.5 9.5h-192z" />
    <glyph glyph-name="uniE67E" unicode="&#xe67e;" 
d="M768 428q-14 0 -23 -9t-9 -23v-378q0 -18 -11.5 -28t-26.5 -10h-372q-18 0 -28 11.5t-10 26.5v378q0 14 -9 23t-23 9t-23 -9t-9 -23v-378q0 -43 29.5 -72.5t72.5 -29.5h365q43 0 73 29.5t30 72.5v378q3 10 0.5 17t-9.5 11t-17 4zM461 76v320q0 9 -4 16.5t-9.5 11.5
t-12.5 4t-15.5 -4t-15.5 -11.5t-7 -16.5v-320q0 -10 4 -17t11 -11t17 -4q5 0 10 1.5t9 4.5t7 6.5t4.5 8.5t1.5 11zM627 76v320q0 14 -11.5 23t-26.5 9q-26 0 -26 -32v-320q0 -14 8 -23t18 -9q11 0 24.5 9.5t13.5 22.5zM832 556h-160v45q0 33 -25 58t-58 25h-154
q-33 0 -58 -25t-25 -58v-45h-160q-14 0 -23 -9t-9 -23t9 -23t23 -9h640q14 0 23 9t9 23t-9 23t-23 9zM416 601q0 19 19 19h154q19 0 19 -19v-45h-192v45z" />
    <glyph glyph-name="uniE682" unicode="&#xe682;" 
d="M896 556h-288q-13 0 -22.5 9.5t-9.5 22.5t9.5 22.5t22.5 9.5h288q13 0 22.5 -9.5t9.5 -22.5t-9.5 -22.5t-22.5 -9.5zM896 396h-288q-13 0 -22.5 9.5t-9.5 22.5t9.5 22.5t22.5 9.5h288q13 0 22.5 -9.5t9.5 -22.5t-9.5 -22.5t-22.5 -9.5zM896 140h-288q-13 0 -22.5 9.5
t-9.5 22.5t9.5 22.5t22.5 9.5h288q13 0 22.5 -9.5t9.5 -22.5t-9.5 -22.5t-22.5 -9.5zM896 -20h-288q-13 0 -22.5 9.5t-9.5 22.5t9.5 22.5t22.5 9.5h288q13 0 22.5 -9.5t9.5 -22.5t-9.5 -22.5t-22.5 -9.5zM384 332h-192q-40 0 -68 28t-28 68v192q0 40 28 68t68 28h192
q40 0 68 -28t28 -68v-192q0 -40 -28 -68t-68 -28zM192 652q-13 0 -22.5 -9.5t-9.5 -22.5v-192q0 -13 9.5 -22.5t22.5 -9.5h192q13 0 22.5 9.5t9.5 22.5v192q0 13 -9.5 22.5t-22.5 9.5h-192zM384 -116h-192q-40 0 -68 28t-28 68v192q0 40 28 68t68 28h192q40 0 68 -28t28 -68
v-192q0 -40 -28 -68t-68 -28zM192 204q-13 0 -22.5 -9.5t-9.5 -22.5v-192q0 -13 9.5 -22.5t22.5 -9.5h192q13 0 22.5 9.5t9.5 22.5v192q0 13 -9.5 22.5t-22.5 9.5h-192z" />
    <glyph glyph-name="uniE684" unicode="&#xe684;" 
d="M224 204q-40 0 -68 28t-28 68t28 68t68 28t68 -28t28 -68t-28 -68t-68 -28zM512 204q-40 0 -68 28t-28 68t28 68t68 28t68 -28t28 -68t-28 -68t-68 -28zM800 204q-40 0 -68 28t-28 68t28 68t68 28t68 -28t28 -68t-28 -68t-68 -28z" />
    <glyph glyph-name="uniE685" unicode="&#xe685;" 
d="M890 383q-5 14 -18 23t-27 9l-211 13l-77 205q-5 14 -18 21.5t-27 7.5t-27 -7.5t-18 -21.5l-77 -205l-211 -6q-14 0 -27 -9t-18 -23q-9 -36 13 -58l173 -134l-58 -212q-9 -31 20 -51q28 -19 57 0l173 122l179 -122q7 -6 26 -6q11 0 16 1t9 5q30 20 20 51l-58 212l173 134
q10 10 13.5 23t-0.5 28z" />
    <glyph glyph-name="uniE686" unicode="&#xe686;" 
d="M717 -71q-19 0 -26 6l-179 122l-179 -122q-29 -19 -58 0q-29 20 -19 51l64 212l-173 134q-10 10 -13.5 23t0.5 28q5 14 18 23t27 9l211 13l77 205q6 18 25.5 25.5t39 0t25.5 -25.5l77 -205l217 -6q29 0 42 -26l3 -6q5 -15 0 -28.5t-19 -23.5l-173 -140l58 -212
q4 -14 -0.5 -27.5t-19.5 -23.5q-2 0 -10 -3t-15 -3zM512 127q13 0 19 -6l167 -115l-58 192q0 12 0.5 17.5t3.5 11.5t9 9l160 128h-205q-10 0 -18 8t-8 18l-70 185l-70 -192q0 -3 -4 -7.5t-10 -8t-12 -3.5l-205 -6l160 -128q6 0 9 -4.5t3.5 -8.5t0.5 -13l-58 -192l167 115h19
z" />
    <glyph glyph-name="uniE687" unicode="&#xe687;" 
d="M640 300l-192 -192l-102 -19q0 19 -20 38q-5 6 -11.5 9t-14.5 5.5t-12 4.5l19 103l199 198q9 10 9 22.5t-9 22.5q-7 6 -15 8.5t-16 0t-14 -8.5l-205 -211q0 -3 -3 -10t-3 -9l-45 -224q0 -20 6 -32q7 -7 26 -7h6l224 45q3 0 9.5 3t9.5 3l205 205q10 10 10 22.5t-9.5 22.5
t-25.5 10t-26 -10zM576 550q-10 9 -22.5 9t-22.5 -9q-6 -7 -8.5 -15t0 -16t8.5 -14l179 -179q7 -7 26 -7q11 0 16 1t10 6q9 9 9 22t-9 22zM858 518l-135 134q-7 8 -16.5 12.5t-19 6t-19 0t-18.5 -6t-16 -12.5l-45 -38q-19 -29 0 -58l173 -173q6 -6 15.5 -8.5t19.5 0t16 8.5
l45 45q19 19 19 44.5t-19 45.5zM371 166q5 -5 10 -6t16 -1q19 0 25 7l180 179q3 4 5.5 8.5t3.5 9t0 9.5t-3.5 9.5t-5.5 8.5q-7 6 -15 8t-16 0t-14 -8l-186 -180q-9 -9 -9 -22t9 -22z" />
    <glyph glyph-name="uniE688" unicode="&#xe688;" 
d="M896 153q-2 0 -4 2t-4.5 5t-5.5 7t-5.5 8.5t-6 8.5t-6.5 7q-28 46 -36 55q-22 22 -47 22q-13 0 -24.5 -5t-19 -11t-15.5 -18t-12.5 -19.5t-11.5 -23.5q0 -8 -7 -20t-13 -18q-8 24 -25 147q-21 134 -40 169q-18 36 -50 36q-39 0 -59 -75q-9 -34 -24 -130
q-16 -114 -32 -154q-6 6 -11 14t-8.5 15t-6.5 10q-12 37 -29 60t-47 23q-16 0 -29 -6t-23.5 -19t-16 -23t-15.5 -29q-4 -14 -12 -26t-13 -12q-13 0 -32 38q-5 13 -9 21t-11 20t-14.5 19t-18.5 12t-24 5q-14 0 -23 -9t-9 -23t9 -23t23 -9q2 0 6 -4.5t7.5 -10t9 -12.5t9.5 -11
q2 -4 8 -14.5t9 -15.5t9.5 -14t11.5 -13.5t12 -10t15.5 -7.5t17.5 -2q10 0 18 2.5t14.5 5.5t13 10t11 12t10 14.5t8.5 15.5t8 17q6 15 14.5 26.5t17.5 11.5q0 3 7 -6q13 -20 19 -26q2 -4 8 -14t9 -15.5t9.5 -14t11.5 -13.5t12 -10t15.5 -7.5t17.5 -2.5q19 0 31.5 12.5
t22.5 45.5t15 60t14 85v2q3 15 6.5 41.5t7 49.5t6.5 37q5 -17 9.5 -39t9.5 -56.5t6 -38.5q0 -1 1 -3q9 -58 14 -84.5t14.5 -59.5t22.5 -45.5t31 -12.5q16 0 29 5.5t23.5 19t16 23t15.5 29.5q5 15 14 26.5t18 11.5q5 0 10 -6.5t11 -17t11 -14.5q27 -47 36 -56q21 -21 47 -21
q10 0 17.5 9t7.5 23q-10 32 -38 32z" />
    <glyph glyph-name="uniE689" unicode="&#xe689;" 
d="M371 358zM320 358q0 7 2 13.5t5 12t8 10.5t10.5 8t12 5t13.5 2q21 0 36 -15t15 -36q0 -7 -1.5 -14t-5 -12.5t-8 -10t-10.5 -8t-12.5 -5.5t-13.5 -2q-21 0 -36 15t-15 37zM512 358zM461 357.5q0 21.5 15 36.5t36 15t36 -15t15 -36q0 -14 -7 -26t-18.5 -19t-25.5 -7
q-21 0 -36 15t-15 36.5zM653 358zM602 358q0 14 6.5 25.5t18.5 18.5t26 7q10 0 19.5 -4t16.5 -11t11 -16.5t4 -19.5q0 -7 -2 -14t-5 -12.5t-8 -10t-10.5 -8t-12 -5.5t-13.5 -2q-21 0 -36 15t-15 37zM378 -84h-13q-19 10 -19 32v128q-100 38 -159 117t-59 171
q0 134 112.5 227t271.5 93t271.5 -93t112.5 -227q0 -85 -50 -157.5t-135 -116t-186 -46.5l-128 -122q-7 -6 -19 -6zM512 620q-134 0 -227 -75t-93 -181q0 -76 52 -139.5t140 -97.5q19 -9 19 -32v-77l83 77q7 13 26 13q134 0 227 75t93 181t-93 181t-227 75z" />
    <glyph glyph-name="uniE68A" unicode="&#xe68a;" 
d="M512 204q-40 0 -68 28t-28 68t28 68t68 28t68 -28t28 -68t-28 -68t-68 -28zM512 332q-13 0 -22.5 -9.5t-9.5 -22.5t9.5 -22.5t22.5 -9.5t22.5 9.5t9.5 22.5t-9.5 22.5t-22.5 9.5zM631 -148q-16 0 -26 13l-73 101q-11 -1 -20 -1t-20 1l-73 -101q-13 -18 -35 -12
q-52 15 -98 41q-8 4 -12.5 13.5t-3.5 18.5l20 124q-8 6 -15 13t-13 15l-124 -20q-6 -1 -12.5 1t-11.5 6t-8 9q-26 46 -41 98q-1 7 -0.5 13t4 12t8.5 10l101 73q-1 11 -1 20v10q0 5 1 10l-101 73q-8 6 -11.5 15.5t-0.5 19.5q15 52 41 98q10 19 32 16l124 -20q13 15 28 28
l-20 124q-3 22 16 32q46 26 98 41q22 6 35 -12l73 -101q7 1 14 1h12q7 0 14 -1l73 101q13 18 35 12q52 -15 98 -41q19 -10 16 -32l-20 -124q15 -13 28 -28l124 20q22 3 32 -16q9 -16 16.5 -32t13.5 -32.5t11 -33.5q6 -22 -12 -35l-101 -73q1 -11 1 -20q0 -10 -1 -20l101 -73
q18 -13 12 -35q-4 -13 -8.5 -25.5t-9.5 -24.5t-10.5 -24t-12.5 -24q-10 -19 -32 -16l-124 20q-13 -15 -28 -28l20 -124q3 -22 -16 -32q-46 -26 -98 -41q-5 -1 -9 -1zM337 -61q11 -5 21.5 -9.5t22.5 -8.5l70 97q11 15 30 13q31 -4 62 0q19 2 30 -13l70 -97q12 4 22.5 8.5
t21.5 9.5l-19 119q-2 18 12 30q12 9 23.5 20.5t20.5 23.5q4 4 8.5 7t10.5 4t11 1l119 -19q5 11 9.5 21.5t8.5 22.5l-97 70q-15 11 -13 30q2 18 2 31q0 8 -0.5 15.5t-1.5 15.5q-2 19 13 30l97 70q-8 23 -18 44l-119 -19q-8 -1 -16 2t-14 10q-19 25 -44 44q-14 12 -12 30
l19 119q-11 5 -21.5 9.5t-22.5 8.5l-70 -97q-11 -15 -30 -13q-31 4 -62 0q-19 -2 -30 13l-70 97q-5 -2 -9.5 -3.5t-8.5 -3.5t-8.5 -3.5t-9 -3.5t-8.5 -4l19 -119q1 -8 -2 -16t-10 -14q-25 -19 -44 -44q-12 -14 -30 -12l-119 19q-10 -21 -18 -44l97 -70q15 -11 13 -30
q-2 -17 -2 -31t2 -31v-7q0 -3 -1 -6.5t-3 -6.5t-4 -5.5t-5 -4.5l-97 -70q3 -8 6 -15t6 -14.5t6 -14.5l119 19q8 1 16 -2t14 -10q19 -25 44 -44q14 -12 12 -30z" />
    <glyph glyph-name="uniE68C" unicode="&#xe68c;" 
d="M800 351v51q0 96 -67 163.5t-163 67.5h-116q-63 0 -116 -31t-83.5 -84t-30.5 -116v-57q-25 3 -47.5 -9t-35.5 -35.5t-13 -51.5v-64q0 -39 29 -67.5t67 -28.5h32q19 0 32 13l160 -77q0 -24 19.5 -41t44.5 -17q19 0 33.5 8t22.5 22.5t8 33.5q0 14 -4.5 26t-13 20.5
t-20.5 13t-26 4.5q-19 0 -32 -13l-160 77v128q0 19 -8.5 33t-23.5 18v64q0 33 13.5 64t36 53.5t53 36t63.5 13.5h116q44 0 82.5 -23t61 -61.5t22.5 -82.5v-64q-15 -9 -23.5 -23t-8.5 -28v-128q0 -24 20 -44t44 -20h32q38 0 67 29t29 67v64q0 39 -29 67.5t-67 28.5z" />
    <glyph glyph-name="uniE68F" unicode="&#xe68f;" 
d="M512 300zM115 300h794q0 -108 -53 -199.5t-144.5 -144.5t-199.5 -53q-155 0 -269 105q-111 103 -126 253q-2 20 -2 39zM666 396q0 38 -11 67t-26.5 45t-37.5 26t-40.5 13t-38.5 3t-38.5 -3t-40.5 -13t-37.5 -26t-26.5 -45t-11 -67q0 -25 5 -49.5t12 -44.5t16 -38t18 -31
t16 -22.5t12 -14.5l5 -5l6 -6v-13q0 -20 -15 -40t-49 -24q-60 -9 -102 -51q44 -45 104 -70.5t126 -25.5q33 0 65.5 7t62 19.5t55.5 30t47 39.5q-9 16 -24.5 27.5t-35.5 17.5t-42 6q-34 4 -49 24t-15 40v6l6 7q0 1 9 12t21 30t24 43.5t21 58t9 67.5z" />
    <glyph glyph-name="uniE690" unicode="&#xe690;" 
d="M512 697q-47 0 -92 -10.5t-84.5 -29.5t-73.5 -46t-61 -61t-46 -73.5t-29.5 -84.5t-10.5 -92q0 -110 53.5 -201.5t144.5 -143.5t199 -52q107 0 198.5 53.5t145 145t53.5 198.5q0 108 -52 199t-143.5 144.5t-201.5 53.5zM307 38q39 38 83 38q44 4 67 35t23 61v13
q0 3 -3 12.5t-3 12.5l-13 7q-3 3 -8 9t-17 24.5t-21 38.5t-17 49t-8 58q0 15 1 25.5t7.5 30.5t18 32.5t36.5 23t59 10.5t59 -10.5t36.5 -23t18 -32.5t7.5 -30.5t1 -25.5q0 -29 -7.5 -58t-18 -50t-20.5 -37.5t-18 -25.5l-7 -8l-6 -7q-3 -3 -6 -7.5t-5 -9.5t-2 -8v-7
q0 -33 24 -62t72 -34q56 -11 83 -38q-99 -77 -205 -77q-120 0 -211 71zM768 82q-49 49 -122 58q-11 0 -18.5 6t-13 15.5t-6.5 10.5q1 2 11 15t18.5 25t20 33.5t20 43t14.5 50t6 57.5q0 86 -50 136t-136 50t-136 -50t-50 -136q0 -34 8 -68t18.5 -58t24 -46t22.5 -33t17 -19
q0 -8 -9 -18t-29 -14q-75 -11 -122 -58q-76 88 -77 218q0 91 45.5 168t122 121t165.5 44q44 0 87 -12.5t79 -34t67.5 -53t53 -67.5t34 -79t12.5 -87q0 -131 -77 -218z" />
    <glyph glyph-name="uniE691" unicode="&#xe691;" 
d="M512 28zM464 28q0 20 14 34t34 14q10 0 19 -4t15 -10.5t10 -15.5t4 -18q0 -13 -6.5 -24.5t-17.5 -17.5t-24 -6q-20 0 -34 14t-14 34zM512 -148q-185 0 -316.5 131.5t-131.5 316.5t131.5 316.5t316.5 131.5t316.5 -131.5t131.5 -316.5t-131.5 -316.5t-316.5 -131.5z
M512 684q-104 0 -192.5 -51.5t-140 -140t-51.5 -192.5t51.5 -192.5t140 -140t192.5 -51.5t192.5 51.5t140 140t51.5 192.5t-51.5 192.5t-140 140t-192.5 51.5zM512 138q-9 0 -16 4.5t-11.5 12t-4.5 15.5v54q0 25 13 50t25.5 39.5t36.5 38.5q18 18 26.5 27t17.5 23t9 24
q0 13 -3.5 25.5t-9.5 23t-15 19.5t-19.5 15.5t-23 10t-25.5 3.5q-40 0 -68 -27.5t-28 -67.5q0 -13 -9.5 -22.5t-22.5 -9.5q-7 0 -12.5 2.5t-10 7t-7 10.5t-2.5 12q0 32 12.5 61.5t34 51t51.5 34t62 12.5q66 0 113 -47t47 -114q0 -22 -12 -45.5t-24 -37t-35 -36.5
q-19 -19 -28.5 -29t-19 -26t-9.5 -28v-54q0 -13 -9.5 -22.5t-22.5 -9.5z" />
    <glyph glyph-name="uniE697" unicode="&#xe697;" 
d="M953 459v1v1q-1 3 -2 5l-75 187q-10 29 -35 45.5t-59 16.5h-527q-21 0 -39.5 -7.5t-31.5 -21t-20 -32.5l-80 -190q0 -1 -0.5 -2t-0.5 -3q-3 -6 -4.5 -13t-2.5 -14t-1.5 -14t-0.5 -13q0 -49 25 -91t68 -65q18 -9 38.5 -14t44.5 -5q82 0 134 63q53 -62 134 -63q81 1 133 63
q52 -62 135 -62q16 0 30.5 2t28 6.5t25.5 11.5q42 23 66.5 64.5t24.5 89.5q0 28 -8 54zM766 428h-512q-4 0 -8 1t-7.5 3t-6.5 5t-5 6.5t-3.5 8t-1.5 8.5q0 9 4.5 16t12 11.5t15.5 4.5h512q5 0 9 -1t7.5 -3t6.5 -5t5 -6.5t3 -8t1 -8.5q0 -13 -9 -22.5t-23 -9.5zM895 172
q0 13 -9.5 22.5t-22.5 9.5q-2 0 -4 -0.5t-5 -1.5q-18 -7 -39 -10.5t-38 -2.5q-79 4 -126 44q-57 -48 -133 -49q-82 0 -134 44q-27 -23 -61.5 -35t-72.5 -12q-32 0 -76 16q0 1 -1 1h-1q-1 0 -2 1q-1 0 -2 1h-7q-13 0 -22.5 -9t-9.5 -23v-171q0 -22 11 -41t30 -30t41 -11h602
q34 0 58 24.5t24 57.5v175z" />
    <glyph glyph-name="uniE698" unicode="&#xe698;" 
d="M640 396h-256q-14 0 -23 9t-9 23t9 23t23 9h256q14 0 23 -9t9 -23t-9 -23t-23 -9zM576 268h-192q-14 0 -23 9t-9 23t9 23t23 9h192q14 0 23 -9t9 -23t-9 -23t-23 -9zM378 -84h-13q-19 10 -19 32v128q-100 38 -159 117t-59 171q0 134 112.5 227t271.5 93t271.5 -93
t112.5 -227q0 -85 -50 -157.5t-135 -116t-186 -46.5l-128 -122q-7 -6 -19 -6zM512 620q-134 0 -227 -75t-93 -181q0 -76 52 -139.5t140 -97.5q19 -9 19 -32v-77l83 77q7 13 26 13q134 0 227 75t93 181t-93 181t-227 75z" />
    <glyph glyph-name="uniE69A" unicode="&#xe69a;" 
d="M512 745q-40 0 -79.5 -7.5t-77 -21.5t-71.5 -34q-15 16 -32.5 28t-37.5 20.5t-42.5 13t-46.5 4.5q-19 0 -28 -16.5t1 -32.5q31 -50 41 -128q-4 -16 -18.5 -50t-18.5 -45q-38 -102 -38 -179q0 -73 22.5 -141.5t64 -123.5t97 -96.5t123.5 -64t141 -22.5q91 0 174 35.5
t143 95.5t95.5 143t35.5 174t-35.5 174t-95.5 142.5t-143 95.5t-174 36zM576 332q0 -20 -14 -34t-34 -14t-34 14t-14 34v64q0 20 14 34t34 14t34 -14t14 -34v-64zM767 332q0 -20 -14 -34t-34 -14q-13 0 -24 6.5t-17.5 17.5t-6.5 24v64q0 20 14 34t34 14q13 0 24 -6.5
t17.5 -17.5t6.5 -24v-64z" />
    <glyph glyph-name="uniE69B" unicode="&#xe69b;" 
d="M320 428zM256 428q0 26 19 45t45 19t45 -19t19 -45t-19 -45t-45 -19t-45 19t-19 45zM843 -84h-662q-31 0 -58.5 15.5t-43 43t-15.5 58.5v534q0 48 34.5 82.5t82.5 34.5h662q48 0 82.5 -34.5t34.5 -82.5v-534q0 -48 -34.5 -82.5t-82.5 -34.5zM181 620q-22 0 -37.5 -15.5
t-15.5 -37.5v-534q0 -22 15.5 -37.5t37.5 -15.5h662q22 0 37.5 15.5t15.5 37.5v534q0 22 -15.5 37.5t-37.5 15.5h-662zM224 43h-4q-1 0 -2.5 0.5t-3.5 0.5q-12 4 -18 16t-3 24q2 7 6.5 17.5t15 34.5t25.5 45t34.5 42t46.5 33.5t56 11.5q35 -1 92 -18q24 -7 35.5 -10t35.5 -6
t39 2q6 1 11 4.5t9 8.5t8 14t7 18.5t8 24.5q8 26 13.5 40.5t20 39t31 38t45.5 24.5t65 11q13 0 22.5 -9.5t9.5 -22.5t-9.5 -22.5t-22.5 -9.5q-28 0 -46.5 -6.5t-31 -23t-19.5 -32.5t-17 -46q-5 -16 -8 -24.5t-9 -23t-12.5 -23.5t-15.5 -19t-21.5 -16t-27.5 -8
q-26 -2 -39.5 -3t-36 3t-33 7t-29.5 9q-13 3 -19.5 5t-17.5 4.5t-20.5 4t-18.5 1.5h-1q-22 0 -43 -15.5t-36 -39.5t-25 -45t-16 -38q-6 -23 -30 -23z" />
    <glyph glyph-name="uniE69C" unicode="&#xe69c;" 
d="M333 562q28 0 58.5 -12.5t50.5 -31.5l25 -26l45 -45l45 45l25 26q45 44 109 44q7 0 14 -1t15.5 -3t13.5 -4l15 -4q13 -8 24 -16.5t20 -18.5t15.5 -21t11 -24.5t6.5 -28.5q9 -73 -39 -122l-275 -281l-275 281q-55 55 -45 122q9 63 77 109q38 12 64 12zM333 626
q-25 0 -48 -4.5t-42 -14.5q-65 -34 -95.5 -95t-20 -125.5t58.5 -112.5l281 -281q20 -19 45 -19q7 0 14.5 2t14 6.5t9.5 10.5l282 281q18 18 30.5 39.5t20 43.5t9 46t-2 47.5t-12.5 46t-23 42.5t-34.5 37.5t-45.5 30.5q-39 19 -89 19q-43 0 -83.5 -17t-70.5 -47l-19 -25
l-26 25q-14 15 -32 26.5t-37.5 20t-41 13t-42.5 4.5z" />
    <glyph glyph-name="uniE69D" unicode="&#xe69d;" 
d="M781 607q-41 22 -86 22.5t-85 -17t-72 -50.5l-26 -25l-26 25q-31 32 -73.5 49t-87 16t-82.5 -20q-65 -34 -95.5 -95t-20 -125.5t58.5 -112.5l32 -32l153 -153l103 -103q19 -19 41.5 -19t41.5 19l102 103l154 153l32 32q44 48 53 112.5t-21.5 125.5t-95.5 95z" />
    <glyph glyph-name="uniE69E" unicode="&#xe69e;" 
d="M826 257l-288 289q-9 9 -23 9l-1 1h-2h-4h-2l-4 -2q-1 0 -3 -1q-6 -2 -11 -7l-259 -259q-10 -9 -10 -22.5t9 -22.5q4 -3 7.5 -5t7.5 -3.5t8 -1.5q13 0 23 10l206 206v-564q0 -13 9.5 -22.5t22.5 -9.5t22.5 9.5t9.5 22.5v565l236 -237q5 -5 11 -7.5t12 -2.5q13 0 22.5 9.5
t9.5 22.5t-9 23zM864 620h-704q-13 0 -22.5 9.5t-9.5 22.5t9.5 22.5t22.5 9.5h704q13 0 22.5 -9.5t9.5 -22.5t-9.5 -22.5t-22.5 -9.5z" />
    <glyph glyph-name="uniE69F" unicode="&#xe69f;" 
d="M512 -148q-185 0 -316.5 131.5t-131.5 316.5t131.5 316.5t316.5 131.5t316.5 -131.5t131.5 -316.5t-131.5 -316.5t-316.5 -131.5zM512 684q-159 0 -271.5 -112.5t-112.5 -271.5t112.5 -271.5t271.5 -112.5t271.5 112.5t112.5 271.5t-112.5 271.5t-271.5 112.5z
M694.5 289.5q-9.5 9.5 -23 9.5t-22.5 -9l-105 -104v307q0 3 -0.5 5.5t-1.5 5t-2.5 5t-3 4.5t-3.5 4t-4.5 3.5t-5 2.5t-5.5 1.5t-6 0.5q-13 0 -22.5 -9.5t-9.5 -22.5v-309l-105 107q-6 6 -14.5 8.5t-16.5 0t-15 -8.5q-4 -4 -6.5 -10t-2.5 -12.5t2.5 -12.5t6.5 -10l160 -161
q9 -10 23 -10q13 0 22 9v1l160 159q10 10 10 23t-9.5 22.5z" />
    <glyph glyph-name="uniE6A0" unicode="&#xe6a0;" 
d="M512 -148q-185 0 -316.5 131.5t-131.5 316.5t131.5 316.5t316.5 131.5t316.5 -131.5t131.5 -316.5t-131.5 -316.5t-316.5 -131.5zM512 684q-159 0 -271.5 -112.5t-112.5 -271.5t112.5 -271.5t271.5 -112.5t271.5 112.5t112.5 271.5t-112.5 271.5t-271.5 112.5zM694 354
l-158 160q-7 7 -16.5 9t-18.5 -2l-1 -1h-1q-6 -3 -8 -6v0l-160 -159q-9 -9 -9 -22.5t9 -22.5q1 -2 3 -3l2 -2q2 -1 4 -1.5t3.5 -1t3.5 -1t3.5 -1t3.5 -0.5q13 0 22 10l104 103v-305q0 -13 9.5 -22.5t22.5 -9.5t22.5 9.5t9.5 22.5v307l105 -106q9 -10 23 -10q13 1 22 9
q10 10 10 23t-10 23z" />
    <glyph glyph-name="uniE6A3" unicode="&#xe6a3;" 
d="M761 280l1 1t1 2q2 4 3 9t1.5 10t-0.5 10t-2.5 9.5t-4.5 9t-7 7.5l-353 334q-10 9 -22 12t-24.5 -0.5t-21.5 -13.5q-5 -5 -8.5 -12t-4.5 -14.5t0.5 -15t5 -14t9.5 -12.5l317 -299l-316 -305q-14 -13 -14.5 -33t13.5 -35q7 -7 16 -10.5t19 -3.5q19 0 33 13l350 338l1 1v1
q1 0 1 1h1q2 2 5 7q1 2 1 3z" />
    <glyph glyph-name="uniE6A4" unicode="&#xe6a4;" 
d="M939.5 555.5q-12.5 4.5 -24.5 -1t-16 -18.5l-25 -69q-45 100 -133 166q-91 68 -202.5 80.5t-214.5 -30.5t-172 -134q-50 -66 -70.5 -145.5t-9.5 -162.5q12 -82 54.5 -153t110.5 -121q55 -41 119.5 -62t131.5 -21q98 0 187.5 43t149.5 123q9 12 17.5 24.5t15.5 25.5
t13 26.5t11.5 27.5t9.5 28t7 29q3 13 -4 24t-20 14q-8 2 -16.5 -1t-14 -9t-7.5 -15q-16 -74 -63 -135q-35 -46 -82 -78.5t-99.5 -47.5t-107.5 -15t-109.5 18t-100.5 52q-57 43 -93 102.5t-46 129.5q-21 144 67 261q58 76 145.5 113t182 26t172.5 -68q42 -32 73.5 -74.5
t49.5 -92.5l-110 43q-13 5 -25 -0.5t-17 -17.5q-2 -6 -2 -12.5t2.5 -12t7 -10t10.5 -7.5l162 -63q6 -2 12 -2h1h2l2 -1q4 0 8 1t7 3t6 4.5t5.5 6t3.5 7.5l58 161q4 12 -1.5 24t-18 16.5z" />
    <glyph glyph-name="uniE6A5" unicode="&#xe6a5;" 
d="M262 550h116v-116h-116v116zM262 166h116v-116h-116v116zM646 550h116v-116h-116v116zM806 6h-115v-58h115q24 0 41 17t17 41v57h-58v-57zM160 594v-262h320v320h-262q-16 0 -29.5 -7.5t-21 -21t-7.5 -29.5zM422 390h-204v204h204v-204zM160 6q0 -24 17 -41t41 -17h262
v320h-320v-262zM218 210h204v-204h-204v204zM544 268h205v-58h-205v58zM691 185h-64v-64h64v-58h58v58h115v64h-115h-58zM544 63h58v-115h-58v115zM627 63h58v-57h-58v57zM544 185h58v-58h-58v58zM806 268h58v-58h-58v58zM806 652h-262v-320h320v262q0 16 -7.5 29.5t-21 21
t-29.5 7.5zM806 390h-204v204h204v-204z" />
    <glyph glyph-name="uniE6A6" unicode="&#xe6a6;" 
d="M512 684q-158 0 -271 -113t-113 -271t113 -271t271 -113t271 113t113 271t-113 271t-271 113zM672 185q10 -10 10 -22.5t-10 -22.5q-19 -19 -40 -4q-3 2 -5 4l-115 115l-115 -115q-10 -10 -22.5 -10t-22.5 10q-5 5 -7.5 10.5t-2.5 11.5t2.5 12t7.5 11l115 115l-115 115
q-10 10 -10 22.5t10 22.5q4 4 8.5 6.5t9 3t9.5 0t9.5 -3t8.5 -6.5l115 -115l115 115q10 10 22.5 10t22.5 -10q5 -5 7.5 -10.5t2.5 -11.5t-2.5 -12t-7.5 -11l-115 -115z" />
    <glyph glyph-name="uniE6A7" unicode="&#xe6a7;" 
d="M512 684q-158 0 -271 -113t-113 -271t113 -271t271 -113t271 113t113 271t-113 271t-271 113zM512 -20q-134 0 -227 93t-93 227t93 227t227 93t227 -93t93 -227t-93 -227t-227 -93zM672 460q-10 10 -22.5 10t-22.5 -10l-115 -115l-115 115q-10 10 -22.5 10t-22.5 -10
q-4 -4 -6.5 -8.5t-3 -9t0 -9.5t3 -9.5t6.5 -8.5l115 -115l-115 -115q-5 -5 -7.5 -11t-2.5 -12t2.5 -11.5t7.5 -10.5q19 -19 40 -4q3 2 5 4l115 115l115 -115q10 -10 22.5 -10t22.5 10t10 22.5t-10 22.5l-115 115l115 115q10 10 10 22.5t-10 22.5z" />
    <glyph glyph-name="uniE6A9" unicode="&#xe6a9;" 
d="M448 -77l358 365q31 31 49 64t21.5 63t-0.5 58.5t-15.5 53t-25 43t-29.5 32.5q-15 15 -34.5 28.5t-45 25.5t-54 15.5t-59 0t-63.5 -21.5t-64 -48l-313 -314q-32 -32 -43.5 -67t-4.5 -65t19 -53t28.5 -39t39.5 -28.5t53 -19.5t65 4.5t67 43.5l313 314q32 32 32 64
q0 38 -32 70q-14 15 -34 23.5t-48 4.5t-52 -28l-314 -314q-6 -6 -8 -14t0 -16t8 -14q5 -5 11 -7.5t12 -2.5t11.5 2.5t10.5 7.5l314 313q22 23 45 0l6 -6q4 -4 4.5 -15.5t-10.5 -23.5l-314 -313q-22 -22 -45.5 -29t-42 0t-28.5 14t-18 15t-15 18t-14 29t-0.5 42t29.5 45
l313 314q31 30 64.5 42.5t60 8.5t49.5 -14.5t35.5 -21t14.5 -15.5q8 -8 16 -18t20 -35t15 -49.5t-8.5 -58t-42.5 -63.5l-352 -365q-9 -10 -9 -22.5t9 -22.5q2 -2 4 -3.5t4.5 -2.5t4.5 -2t4 -1h6h4q3 0 5 1t4.5 2t4.5 2.5t4 3.5v0v0z" />
    <glyph glyph-name="uniE6AA" unicode="&#xe6aa;" 
d="M832 -52h-640q-38 0 -67 29t-29 67v512q0 38 29 67t67 29h640q38 0 67 -29t29 -67v-512q0 -38 -29 -67t-67 -29zM192 588q-14 0 -23 -9t-9 -23v-512q0 -14 9 -23t23 -9h640q14 0 23 9t9 23v512q0 14 -9 23t-23 9h-640zM672 402zM608 402.5q0 26.5 19 45t45 18.5t45 -18.5
t19 -45t-19 -45.5t-45 -19t-45 19t-19 45.5zM768 134q-14 11 -26 18t-23 9t-19 3t-18.5 -2.5t-16.5 -6t-19 -9.5q-53 -26 -115 -19q-13 3 -25 7.5t-21 10.5t-17.5 13.5t-14.5 14.5t-12 16.5t-10 16.5t-9 17q-8 17 -13 26t-15.5 20.5t-22.5 17.5q-58 29 -118 -4l-3 -2
q-15 -9 -31 -6.5t-21 12.5t-0.5 25t13.5 20q1 0 12.5 5.5t28.5 11.5t39 10.5t50.5 1t55.5 -15.5q21 -12 37.5 -28.5t24.5 -28t21 -33.5q1 -2 4 -6q8 -14 12.5 -21t13 -16t18 -14t22.5 -7q30 -7 71 13q20 9 28.5 12t29.5 7t37 0.5t40.5 -14t49.5 -31.5q13 -8 16 -24t-3 -20
q0 -1 -7 -4.5t-9.5 -4t-8.5 -1.5t-12.5 1.5t-13.5 8.5z" />
    <glyph glyph-name="uniE6AC" unicode="&#xe6ac;" 
d="M986 222q-8 11 -21 13t-24 -6l-57 -41q15 55 15 111q0 38 -6.5 75t-19.5 70.5t-31 65t-41 58.5t-50 50t-58.5 41t-65 31t-70.5 19.5t-75 6.5q-113 0 -209 -56t-152 -152t-56 -209t56 -209t152 -152t209 -56q111 0 207 55l10 4q27 16 51 36q10 8 11.5 21t-7 23.5
t-21.5 11.5t-24 -7q-17 -14 -40 -28l-2 -1q-3 -1 -4 -1q-83 -50 -181 -50q-95 0 -176.5 47.5t-129 128.5t-47.5 177q0 48 13 93.5t35.5 84.5t55.5 71.5t71.5 55.5t84 35.5t93.5 12.5q96 0 177.5 -47.5t128.5 -128.5t47 -177q0 -66 -24 -128l-45 109q-5 12 -17.5 17t-24.5 0
t-17 -17.5t0 -24.5l72 -173q0 -1 3 -5v-1h1v-1l5 -5q2 -2 5 -3l1 -1h1q6 -3 11 -3q0 -1 0.5 -0.5t1.5 0.5v-1h1h1q0 1 1 1q3 0 7 1h1q4 2 7 4h1l152 109q10 8 12.5 21t-5.5 24zM607 438q9 9 9.5 22t-9 22.5t-22.5 10t-23 -9.5l-80 -77l-79 77q-10 10 -23 9.5t-22.5 -10
t-9 -22.5t9.5 -22l90 -87v-19h-64q-13 0 -22.5 -9.5t-9.5 -22.5t9.5 -22.5t22.5 -9.5h64v-32h-64q-13 0 -22.5 -9.5t-9.5 -22.5t9.5 -22.5t22.5 -9.5h64v-67q0 -14 9.5 -23t22.5 -9t22.5 9t9.5 23v67h64q13 0 22.5 9.5t9.5 22.5t-9.5 22.5t-22.5 9.5h-64v32h64
q13 0 22.5 9.5t9.5 22.5t-9.5 22.5t-22.5 9.5h-64v14z" />
    <glyph glyph-name="uniE6AD" unicode="&#xe6ad;" 
d="M243 300zM160 300q0 17 6.5 32.5t17.5 26.5t26.5 17.5t32.5 6.5q35 0 59 -24.5t24 -58.5t-24 -58.5t-59 -24.5q-17 0 -32.5 6.5t-26.5 17.5t-17.5 26.5t-6.5 32.5zM512 300zM429 300q0 17 6.5 32.5t17.5 26.5t26.5 17.5t32.5 6.5q34 0 58.5 -24.5t24.5 -58.5t-24.5 -58.5
t-58.5 -24.5t-58.5 24.5t-24.5 58.5zM781 300zM698 300q0 23 11 42t30 30t42 11q34 0 58.5 -24.5t24.5 -58.5q0 -47 -41 -72q-20 -11 -42 -11q-23 0 -42 11t-30 30t-11 42z" />
    <glyph glyph-name="uniE6AF" unicode="&#xe6af;" 
d="M353 -20q-27 0 -45.5 -18.5t-18.5 -45.5t18.5 -45.5t45.5 -18.5q17 0 31.5 8.5t23.5 23.5t9 32q0 27 -19 45.5t-45 18.5zM801 -20q-27 0 -45.5 -18.5t-18.5 -45.5t18.5 -45.5t45 -18.5t45.5 18.5t19 45.5t-19 45.5t-45 18.5zM864 12h-520q-17 0 -33 6.5t-28 17.5
t-20.5 26.5t-10.5 32.5l-54 382l-31 179q-2 11 -11 19.5t-19 8.5h-41q-13 0 -22.5 9.5t-9.5 22.5t9.5 22.5t22.5 9.5h41q35 0 62 -24t31 -59l31 -178l54 -384q2 -11 10.5 -19t18.5 -8h520q13 0 22.5 -9.5t9.5 -22.5t-9.5 -22.5t-22.5 -9.5zM384 140q-12 0 -21.5 8.5
t-10.5 21.5q0 8 3.5 16t10.5 12.5t16 5.5l434 32q12 0 21 8t10 19l51 288q1 8 -1.5 16.5t-7.5 13.5q-3 3 -6.5 5t-8.5 2h-554q-13 0 -22.5 9.5t-9.5 22.5t9.5 22.5t22.5 9.5h554q12 0 23.5 -3.5t21.5 -9.5t18 -16q30 -33 24 -81l-51 -289q-4 -33 -30.5 -57t-61.5 -24
l-431 -32h-3z" />
    <glyph glyph-name="uniE6B0" unicode="&#xe6b0;" 
d="M800 160h-256v128h256q14 0 23 9t9 23t-9 23t-23 9h-243l230 230q7 7 9 15t0 16t-8.5 14.5t-14.5 8.5t-16 0t-15 -9l-230 -230l-230 237q-10 9 -23 9t-22.5 -9.5t-9.5 -22.5t10 -22l230 -237h-243q-10 0 -17 -4t-11 -11t-4 -17q0 -14 9 -23t23 -9h256v-128h-256
q-14 0 -23 -9t-9 -23t9 -23t23 -9h256v-160q0 -14 9 -23t23 -9t23 9t9 23v160h256q14 0 23 9t9 23t-9 23t-23 9z" />
    <glyph glyph-name="uniE6B1" unicode="&#xe6b1;" 
d="M704 -52h-5q-2 0 -4.5 0.5t-5 2t-4.5 3.5l-154 103l-77 -77q-5 -5 -15.5 -8t-16.5 2q-19 9 -19 32v140q0 13 7 20l243 262q9 10 22 10t23 -10q4 -5 6.5 -10.5t2.5 -11.5t-2.5 -12t-6.5 -11l-237 -256v-51l45 38q17 17 38 7l141 -90l109 531l-538 -262l122 -77
q10 -5 12.5 -20t-6.5 -25q-5 -9 -20 -13t-25 1l-166 108q-13 14 -13 26q0 6 2 11t6 8t11 7l640 320q22 10 32 0q13 -7 13 -32l-128 -640q0 -16 -19 -26h-13z" />
    <glyph glyph-name="uniE6B2" unicode="&#xe6b2;" 
d="M851 646q-21 10 -32 0l-640 -320q-9 0 -14 -8t-5 -18t4 -18t9 -8l153 -96l6 -2q3 -1 5.5 -1.5t5.5 -0.5t5.5 1t5.5 2t5.5 3t5.5 5l339 307l13 -6l-307 -327q-5 -4 -6 -8.5t-1 -10.5v-141q0 -22 19 -32q17 -8 32 7l77 76l154 -102q6 -6 19 -6h13q18 10 19 25l128 640
q-2 32 -13 39z" />
    <glyph glyph-name="uniE6B3" unicode="&#xe6b3;" 
d="M832 652h-640q-28 0 -46 -19.5t-18 -44.5v-448q0 -28 19.5 -46t44.5 -18h256v-64h-96q-14 0 -23 -9t-9 -23t9 -23t23 -9h320q14 0 23 9t9 23t-9 23t-23 9h-96v64h256q28 0 46 19.5t18 44.5v448q0 24 -20 44t-44 20zM832 140h-640v448h640v-448z" />
    <glyph glyph-name="uniE6B4" unicode="&#xe6b4;" 
d="M678 402l-147 192q-5 10 -17 10t-21 -10l-147 -192q-9 -26 8 -36q6 -2 11 -2h83v-352q0 -14 9 -23t23 -9h64q14 0 23 9t9 23v352h83q14 0 19 11.5t0 26.5z" />
    <glyph glyph-name="uniE6B5" unicode="&#xe6b5;" 
d="M659 223h-294q-15 0 -21.5 -12t2.5 -26l147 -192q2 -5 6.5 -7.5t10 -2.5t11.5 2.5t10 7.5l147 192q6 10 0.5 24t-19.5 14zM365 364h294q15 0 21.5 12t-2.5 26l-147 192q-5 10 -17 10t-21 -10l-147 -192q-9 -26 8 -36q6 -2 11 -2z" />
    <glyph glyph-name="uniE6B6" unicode="&#xe6b6;" 
d="M659 223h-83v352q0 15 -9 23.5t-23 8.5h-64q-13 0 -22.5 -10.5t-9.5 -21.5v-352h-83q-15 0 -21.5 -12t2.5 -26l147 -192q2 -5 6.5 -7.5t10 -2.5t11.5 2.5t10 7.5l147 192q6 10 0.5 24t-19.5 14z" />
    <glyph glyph-name="uniE6B8" unicode="&#xe6b8;" 
d="M980 407l-406 321q-26 21 -62 21t-62 -21l-406 -321q-10 -8 -11.5 -21t6.5 -23.5t21 -12t23 6.5l13 11v-388q0 -40 34.5 -68t74.5 -28h640q37 0 60 26.5t23 69.5v386l12 -9q4 -3 9 -5t11 -2q3 0 5.5 0.5t5.5 1.5t5.5 2.5t4.5 3.5l4 4q2 3 3.5 6.5t2.5 7t1 7t-1 7
t-2.5 6.5t-3.5 6t-5 5zM480 -52v177q0 14 32 14t32 -14v-177h-64zM864 -20q0 -32 -19 -32h-236h-1v1v176q0 31 -25 54.5t-71 23.5q-31 0 -53.5 -12t-32.5 -29t-10 -37v-176v-1h1h-212q-15 0 -30 10.5t-15 21.5v438l329 260q9 7 22.5 7t22.5 -7l330 -261v-437z" />
    <glyph glyph-name="uniE6B9" unicode="&#xe6b9;" 
d="M608 -52q-14 0 -23 9t-9 23v384q0 13 13 26l198 166q5 5 5 12t-5 7q0 13 -19 13h-512q-19 0 -19 -13q0 -1 -1.5 -5.5t0 -7.5t7.5 -6l199 -166q0 -3 2 -8l2 -10q2 -5 2 -8v-256q0 -14 -9 -23t-23 -9t-23 9t-9 23v243l-186 154q-19 19 -24 45.5t5 50.5q3 15 14 27t27.5 18
t35.5 6h512q16 0 31 -6t27.5 -18t18.5 -27q10 -24 4.5 -50t-23.5 -40l-192 -160v-371q4 -14 -3.5 -23t-22.5 -9z" />
    <glyph glyph-name="uniE6BB" unicode="&#xe6bb;" 
d="M982 408l-409 320q-26 21 -62 21t-62 -21l-406 -321q-10 -8 -11.5 -21t6.5 -23.5t21 -12t24 6.5l13 11v-388q0 -40 34 -68t74 -28h640q38 0 61 26.5t23 69.5v389l14 -12q2 -1 3.5 -2t3 -1.5t3.5 -1.5t3.5 -1t3 -0.5t3.5 -0.5q7 0 14 3.5t11 9.5q4 5 6 11t1 12t-4 12
t-8 10zM608 15v-67h-64h-64h-64v67v112q0 31 25 54t71 23q24 0 43 -6.5t30 -18t17 -24.5t6 -28v-112z" />
    <glyph glyph-name="uniE6BC" unicode="&#xe6bc;" 
d="M640 396h-256q-13 0 -22.5 9.5t-9.5 22.5t9.5 22.5t22.5 9.5h256q13 0 22.5 -9.5t9.5 -22.5t-9.5 -22.5t-22.5 -9.5zM579 268h-195q-13 0 -22.5 9.5t-9.5 22.5t9.5 22.5t22.5 9.5h195q14 0 23 -9.5t9 -22.5t-9 -22.5t-23 -9.5zM962 364q0 104 -60 192.5t-163 140
t-224.5 51.5t-225 -51.5t-163.5 -140t-60 -192.5q0 -87 45.5 -166t127.5 -135q11 -7 24 -4.5t20.5 13.5t5 24t-13.5 20q-69 47 -107 112t-38 136q0 87 51.5 160.5t140 116.5t192.5 43t192.5 -43t140 -116.5t51.5 -160.5t-51.5 -160.5t-140 -116.5t-192.5 -43q-1 0 -3 -1h-2
q-6 1 -11.5 0t-10.5 -3.5t-8.5 -7t-5.5 -9.5q-9 -26 -94 -74q17 58 3 79q-1 2 -3.5 4.5t-4.5 4t-4.5 3t-5.5 2.5t-6 1.5t-6 0.5q-8 0 -15.5 -4.5t-12 -11.5t-4.5 -16t5 -16q-1 -6 -3.5 -14t-5.5 -18t-7 -21t-8.5 -23.5t-8.5 -23.5q-9 -20 7 -35q9 -9 22 -9q4 0 7 0.5t6 2.5
q144 64 188 125q90 2 171.5 32.5t140.5 82t93.5 122t34.5 147.5z" />
    <glyph glyph-name="uniE6BD" unicode="&#xe6bd;" 
d="M160 204q-13 0 -22.5 9.5t-9.5 22.5v160q0 13 9.5 22.5t22.5 9.5t22.5 -9.5t9.5 -22.5v-160q0 -13 -9.5 -22.5t-22.5 -9.5zM864 -116h-640q-40 0 -68 28t-28 67v65q0 13 9.5 22.5t22.5 9.5t22.5 -9.5t9.5 -22.5v-65q0 -13 9.5 -22t22.5 -9h640q13 0 22.5 9.5t9.5 22.5
v640q0 13 -9.5 22.5t-22.5 9.5h-640q-13 0 -22.5 -5.5t-9.5 -11.5v-47q0 -13 -9.5 -22.5t-22.5 -9.5t-22.5 9.5t-9.5 22.5v47q0 16 7.5 31t20.5 26t31 17.5t37 6.5h640q40 0 68 -28t28 -68v-640q0 -40 -28 -68t-68 -28zM192 460h-96q-13 0 -22.5 9.5t-9.5 22.5t9.5 22.5
t22.5 9.5h96q13 0 22.5 -9.5t9.5 -22.5t-9.5 -22.5t-22.5 -9.5zM192 108h-96q-13 0 -22.5 9.5t-9.5 22.5t9.5 22.5t22.5 9.5h96q13 0 22.5 -9.5t9.5 -22.5t-9.5 -22.5t-22.5 -9.5zM319 11q-5 0 -10 2t-9 5t-7 7.5t-5 10.5q-3 13 4 24t20 14q97 23 168 31v20
q-50 43 -73 107.5t-23 162.5q0 192 192 192q46 0 81 -11.5t55.5 -30t33.5 -45t17.5 -51.5t4.5 -54q0 -171 -127 -271v-20q19 -2 43.5 -6t43 -7.5t39.5 -8t27.5 -5.5t12.5 -3q13 -3 20 -14t4 -24t-14 -20t-24 -4q-17 4 -39 8.5t-70.5 12.5t-76.5 10q-8 1 -15 5.5t-11 11.5
t-4 15v65q0 8 3.5 14.5t9.5 11.5q114 82 114 229q0 69 -30 98.5t-98 29.5q-69 0 -98.5 -29.5t-29.5 -98.5q0 -89 19.5 -142.5t63.5 -87.5q13 -9 13 -25v-65q0 -12 -9 -21.5t-21 -10.5q-48 -2 -187 -31q-4 -1 -8 -1z" />
    <glyph glyph-name="uniE6BF" unicode="&#xe6bf;" 
d="M546 172h-1q-12 0 -23.5 7.5t-21.5 18.5l-37 43q-9 10 -8.5 24t10.5 23t23 8.5t22 -10.5l37 -40l174 179l-50 55l-72 -75q-6 -6 -14.5 -8t-16.5 0t-14.5 8t-8.5 14.5t0 16.5t8 14l74 75q18 18 45 18t45 -19l50 -53q18 -19 17.5 -45.5t-18.5 -44.5l-176 -185
q-24 -24 -44 -24zM352 57q-13 0 -24.5 5t-20.5 14l-51 49q-19 18 -19 45t19 45l179 187l7 8q4 3 9 6.5t9.5 6t9.5 4t10 1.5q20 0 45 -25l42 -45q9 -9 9 -23.5t-9.5 -23.5t-22.5 -9.5t-23 8.5l-41 41l-179 -181l51 -48l75 73q6 6 14 8t16.5 0t14.5 -8q9 -10 9 -23t-9 -23
l-75 -73q-6 -6 -13.5 -10.5t-15.5 -6.5t-16 -2zM512 -148q-185 0 -316.5 131.5t-131.5 316.5t131.5 316.5t316.5 131.5t316.5 -131.5t131.5 -316.5t-131.5 -316.5t-316.5 -131.5zM512 684q-159 0 -271.5 -112.5t-112.5 -271.5t112.5 -271.5t271.5 -112.5t271.5 112.5
t112.5 271.5t-112.5 271.5t-271.5 112.5z" />
    <glyph glyph-name="uniE6C0" unicode="&#xe6c0;" 
d="M512 44q-13 0 -22.5 9.5t-9.5 22.5v96q0 13 9.5 22.5t22.5 9.5t22.5 -9.5t9.5 -22.5v-96q0 -13 -9.5 -22.5t-22.5 -9.5zM832 -148h-640q-40 0 -68 28t-28 68v352q0 40 28 68t68 28h640q40 0 68 -28t28 -68v-352q0 -40 -28 -68t-68 -28zM192 332q-13 0 -22.5 -9.5
t-9.5 -22.5v-352q0 -13 9.5 -22.5t22.5 -9.5h640q13 0 22.5 9.5t9.5 22.5v352q0 13 -9.5 22.5t-22.5 9.5h-640zM736 332q-13 0 -22.5 9.5t-9.5 22.5v130q0 52 -29.5 96.5t-74 69t-90.5 24.5q-74 0 -132 -52.5t-58 -137.5v-130q0 -13 -9.5 -22.5t-22.5 -9.5t-22.5 9.5
t-9.5 22.5v130q0 76 38 135.5t95 89t121 29.5q23 0 46.5 -5t45.5 -14t43.5 -22t39.5 -29.5t33.5 -37t26.5 -43.5t17 -49.5t6 -53.5v-130q0 -13 -9.5 -22.5t-22.5 -9.5z" />
    <glyph glyph-name="uniE6C2" unicode="&#xe6c2;" 
d="M512 44q-13 0 -22.5 9.5t-9.5 22.5v96q0 13 9.5 22.5t22.5 9.5t22.5 -9.5t9.5 -22.5v-96q0 -13 -9.5 -22.5t-22.5 -9.5zM832 -148h-640q-40 0 -68 28t-28 68v384q0 40 28 68t68 28h640q40 0 68 -28t28 -68v-384q0 -40 -28 -68t-68 -28zM192 364q-13 0 -22.5 -9.5
t-9.5 -22.5v-384q0 -13 9.5 -22.5t22.5 -9.5h640q13 0 22.5 9.5t9.5 22.5v384q0 13 -9.5 22.5t-22.5 9.5h-640zM288 396q-13 0 -22.5 9.5t-9.5 22.5v65q0 58 23 107t61 81t85.5 49.5t96.5 17.5q76 0 143 -41t101 -108q6 -11 2 -24t-16 -19t-24.5 -1.5t-18.5 15.5
q-26 52 -77.5 83t-109.5 31q-79 0 -140.5 -53t-61.5 -138v-65q0 -13 -9.5 -22.5t-22.5 -9.5z" />
    <glyph glyph-name="uniE6C3" unicode="&#xe6c3;" 
d="M512 -148q-91 0 -174 35.5t-143 95.5t-95.5 143t-35.5 174q0 185 131.5 316.5t316.5 131.5q91 0 174 -35.5t143 -95.5t95.5 -143t35.5 -174t-35.5 -174t-95.5 -143t-143 -95.5t-174 -35.5zM512 684q-159 0 -271.5 -112.5t-112.5 -271.5q0 -104 51.5 -192.5t140 -140
t192.5 -51.5t192.5 51.5t140 140t51.5 192.5q0 78 -30.5 149t-82 122.5t-122.5 82t-149 30.5zM416 74q-8 1 -14 3q-18 9 -18 29v322h-64q-13 0 -22.5 9.5t-9.5 22.5t9.5 22.5t22.5 9.5h96q13 0 22.5 -9.5t9.5 -22.5v-286l232 190h-8q-13 0 -22.5 9.5t-9.5 22.5t9.5 22.5
t22.5 9.5h97q23 0 30 -21q2 -5 2 -10t-1 -9.5t-4 -9t-7 -7.5l-353 -289q-9 -8 -20 -8z" />
    <glyph glyph-name="uniE6C4" unicode="&#xe6c4;" 
d="M342 230q-14 0 -23 -9t-9 -23t9 -22.5t23 -8.5h142v-85q0 -5 1.5 -10t4.5 -9t7 -7t8.5 -4.5t10.5 -1.5q14 0 23 9t9 23v84h142q14 0 23 9t9 23t-9 23t-23 9h-142v53h142q14 0 23 8.5t9 22.5t-9 23t-23 9h-117l118 118q9 9 9 22t-9 22.5t-22 9.5t-23 -9l-130 -131
l-131 135q-9 9 -22 9t-22 -9q-6 -7 -8.5 -15t0 -16t8.5 -14l119 -122h-118q-9 0 -16.5 -4t-11.5 -11.5t-4 -16.5t4 -16t11.5 -11t16.5 -4h142v-53h-142zM516 696q-52 0 -101.5 -13.5t-93 -38.5t-80.5 -60.5t-64 -79.5l-11 43q-2 11 -12 17t-21 3t-17 -12.5t-3 -20.5l27 -108
q1 -6 5 -11t10 -7.5t12 -2.5h3q2 0 3 1l108 27q11 2 17 12t3 21q-2 7 -7 12.5t-12 7.5t-14 0l-43 -10q46 76 124 120.5t167 44.5q92 0 170.5 -46t124.5 -124.5t46 -170.5t-46 -170.5t-124.5 -124.5t-170.5 -46t-171 46t-124.5 124.5t-45.5 170.5q0 5 -1.5 9t-4 7.5t-6 6
t-7.5 4t-8 1.5q-12 0 -20 -8.5t-8 -19.5q0 -107 53 -198.5t144.5 -144.5t198.5 -53q80 0 153.5 31.5t126.5 84.5t84.5 126.5t31.5 153.5q0 107 -53 198.5t-144.5 144.5t-198.5 53z" />
    <glyph glyph-name="uniE6C6" unicode="&#xe6c6;" 
d="M800 620h-576q-13 0 -22.5 -9.5t-9.5 -22.5t9.5 -22.5t22.5 -9.5h576q13 0 22.5 9.5t9.5 22.5t-9.5 22.5t-22.5 9.5zM535 515q-1 1 -2.5 2t-2.5 1.5t-2.5 1.5t-3.5 2q-12 5 -24 0q-6 -3 -10 -7l-256 -256q-10 -10 -10 -23t9.5 -22.5t22.5 -9.5t23 9l201 202v-435
q0 -13 9.5 -22.5t22.5 -9.5t22.5 9.5t9.5 22.5v435l201 -202q3 -3 7 -5t8 -3t8 -1q14 1 23 9q9 10 9 23t-9 23z" />
    <glyph glyph-name="uniE6C8" unicode="&#xe6c8;" 
d="M512 332q88 0 166 17.5t131 55t53 86.5q0 37 -30.5 68t-81 50.5t-112 30t-126.5 10.5t-126.5 -10.5t-112 -30t-81 -50.5t-30.5 -68t30.5 -68t81 -50.5t112 -30t126.5 -10.5zM512 586q62 0 117.5 -9t91.5 -23.5t56.5 -31t20.5 -31.5t-20.5 -31.5t-56.5 -31t-91 -23.5
t-117.5 -9t-118 9t-91.5 23.5t-56.5 31t-20.5 31.5t20.5 31.5t56.5 31t91.5 23.5t117.5 9zM225.5 357q-10.5 8 -23.5 6t-21 -13q-20 -27 -19 -56q1 -36 30.5 -66.5t84.5 -51.5q94 -35 223 -35h8h7q88 1 165.5 20t130 57.5t51.5 87.5q0 23 -13 44q-6 11 -19 14t-24 -3
q-12 -7 -15 -19.5t4 -24.5q3 -6 3 -12q1 -15 -19.5 -32t-56 -32t-91 -25t-117.5 -12q-62 0 -117 8t-97 24q-34 13 -54 29t-20 30q0 2 0.5 4t1 4.5t2 4.5t3.5 5q7 10 5 23t-12.5 21zM801 169q-11 -8 -13.5 -20.5t5.5 -23.5q5 -9 5 -16q0 -10 -9 -20.5t-26 -21.5t-42.5 -20.5
t-56.5 -17t-70.5 -11.5t-81.5 -4q-122 0 -204 31t-82 64q0 7 5 15q7 11 4.5 24t-13.5 20t-24 4.5t-20 -13.5q-16 -24 -16 -50q0 -17 6.5 -32.5t18 -29t28.5 -25.5t37.5 -22t44 -18t49.5 -14t53.5 -10t56 -6t56.5 -2q88 0 166 17.5t131 55t53 86.5q0 13 -4 26t-12 25
q-5 7 -12.5 11t-16 3.5t-16.5 -5.5z" />
    <glyph glyph-name="uniE6C9" unicode="&#xe6c9;" 
d="M641 -54q-26 0 -45 18.5t-19 45.5q0 13 5 25t14 20.5t20.5 13.5t24.5 5h65v63q0 13 -9.5 22.5t-22.5 9.5q-27 0 -66 2v31q20 16 35.5 35.5t25.5 35.5t17 40t10.5 38t5.5 42t2 38.5t1 40.5v4q0 3 0.5 4.5t0.5 3.5v5v17l-1 8q-10 212 -189 229q-7 0 -13.5 0.5t-12.5 1.5h-8
h-6q-13 -1 -25 -2q-181 -17 -191 -230v-7q0 -3 -0.5 -5.5t-0.5 -5.5v-6v-11v-9v-8q6 -157 93 -257v-38q-68 -10 -123 -28.5t-93.5 -51t-38.5 -73.5q0 -33 18 -59.5t45 -43.5t64.5 -29.5t71.5 -19t72.5 -10t60 -4.5t40.5 -1h13h14q98 0 185 18q12 3 19 11.5t7 20.5v50h-66z
M898 44h-98v94q0 13 -9.5 22.5t-22.5 9.5t-22.5 -9.5t-9.5 -22.5v-94h-95q-13 0 -22.5 -9.5t-9.5 -22.5t9.5 -22.5t22.5 -9.5h95v-98q0 -14 9.5 -23t22.5 -9t22.5 9t9.5 23v98h98q13 0 22.5 9.5t9.5 22.5t-9.5 22.5t-22.5 9.5z" />
    <glyph glyph-name="uniE6CA" unicode="&#xe6ca;" 
d="M898 44h-98v94q0 13 -9.5 22.5t-22.5 9.5t-22.5 -9.5t-9.5 -22.5v-94h-95q-13 0 -22.5 -9.5t-9.5 -22.5t9.5 -22.5t22.5 -9.5h95v-98q0 -14 9.5 -23t22.5 -9t22.5 9t9.5 23v98h98q13 0 22.5 9.5t9.5 22.5t-9.5 22.5t-22.5 9.5zM468 -151q-28 0 -58 1.5t-76 6.5t-84.5 17
t-74.5 29t-57 46t-21 66q0 25 14.5 47t38.5 38t57.5 29.5t69.5 22.5t76 15v37q-30 29 -50 64t-29 74.5t-12 71.5t-4 75q0 119 60.5 188t164.5 69q222 0 222 -256q0 -54 -16.5 -102.5t-47.5 -106.5l-32 -66v-77q0 -14 -9 -23t-22.5 -9t-23 9t-9.5 23v85q1 7 4 14l35 73
q28 53 42.5 94.5t14.5 85.5q0 67 -16.5 109t-51 62.5t-90.5 20.5q-42 0 -73 -15t-47 -36t-26 -49.5t-12.5 -49.5t-2.5 -42q1 -90 19 -148t65 -99q3 -3 5 -5.5t3.5 -5.5t2 -6.5t0.5 -6.5v-80q0 -13 -8 -22t-20 -10q-49 -6 -92.5 -16.5t-72.5 -23t-46 -26.5t-17 -26
q0 -27 30 -47.5t78 -32t98.5 -17t100.5 -5.5q60 0 168 14h1q13 2 23.5 -6t12.5 -21t-6 -23.5t-21 -12.5q-5 -1 -8.5 -1.5t-17 -2t-25.5 -3t-30 -3t-33.5 -3t-32.5 -2t-31 -0.5z" />
    <glyph glyph-name="uniE6CC" unicode="&#xe6cc;" 
d="M401 -148q-336 0 -336 162q0 37 34 67.5t84.5 49t111.5 28.5v6q-31 24 -51.5 57t-30 73t-13 74.5t-3.5 76.5q0 99 55 155t153 56h7q64 0 111 -25t72 -72.5t25 -113.5q0 -42 -3.5 -76.5t-13 -74.5t-30 -73t-51.5 -57v-6q61 -10 111.5 -28.5t84.5 -49t34 -67.5
q0 -20 -6 -38t-20 -37t-40.5 -34t-64 -27.5t-94 -19t-126.5 -6.5zM405 593q-72 0 -108 -37t-36 -110q0 -21 0.5 -39.5t3 -39.5t6 -38.5t10 -35.5t15 -33t20.5 -28.5t28 -22.5q15 -10 15 -27v-52q0 -12 -8.5 -21t-20.5 -10q-43 -5 -82 -15.5t-64.5 -22.5t-40 -24.5
t-14.5 -22.5q0 -98 272 -98q91 0 155.5 11.5t98 33.5t33.5 53q0 21 -58.5 48.5t-142.5 36.5q-13 1 -21 10t-8 21v52q0 4 1 8t3 7.5t4.5 6.5t6.5 5q26 16 43.5 42.5t25.5 60t11 64.5t3 70q0 147 -144 147h-7zM899 48q-13 0 -22.5 9.5t-9.5 22.5q0 8 -10 18.5t-29 22.5
t-42.5 23t-54 19.5t-61.5 11.5q-12 2 -20 11t-8 21v67q0 17 14 27q29 18 49 48t28.5 63.5t11.5 58t3 47.5q0 125 -121 133q-8 1 -16 1q-13 0 -22.5 9.5t-9.5 22.5q0 7 2.5 12.5t6.5 10t10 7t13 2.5q93 0 147 -53t54 -145q0 -27 -3.5 -55.5t-13.5 -67.5t-33 -76t-56 -62v-22
q53 -10 103.5 -31.5t86 -55t35.5 -68.5q0 -13 -9.5 -22.5t-22.5 -9.5z" />
    <glyph glyph-name="uniE6CD" unicode="&#xe6cd;" 
d="M752 -148h-475q-39 0 -70.5 26.5t-38.5 64.5l-68 416q-7 41 18.5 71.5t67.5 30.5h657q20 0 37.5 -8t29.5 -23q26 -30 19 -71l-69 -415q-4 -26 -20 -47t-39.5 -33t-48.5 -12zM186 397q-12 0 -18.5 -7.5t-4.5 -20.5l68 -415q2 -10 9 -18.5t17 -14t20 -5.5h475q10 0 20 5.5
t17 14t8 18.5l69 415q2 13 -4.5 20.5t-18.5 7.5h-657zM320 205q-26 0 -45 18.5t-19 45.5q0 17 9 32t23.5 23.5t31.5 8.5q27 0 45.5 -19t18.5 -45q0 -13 -5 -25t-13.5 -20.5t-20.5 -13.5t-25 -5zM320 269v-32v32zM706.5 205q-17.5 0 -32.5 8.5t-23.5 23t-8.5 32.5q0 26 19 45
t45 19q8 0 15 -2t13.5 -5t12 -7.5t10 -10t7.5 -11.5t4.5 -13.5t1.5 -14.5q0 -18 -8.5 -32.5t-23 -23t-32 -8.5zM706 269v-32v32zM738 492q-13 0 -22.5 9.5t-9.5 22.5q0 44 -29.5 81.5t-73.5 58t-90 20.5q-75 0 -133 -44t-58 -116q0 -13 -9 -22.5t-22.5 -9.5t-23 9.5
t-9.5 22.5q0 67 38 119.5t95.5 78.5t121.5 26q61 0 120 -28t98 -80.5t39 -115.5q0 -9 -4 -16t-11.5 -11.5t-16.5 -4.5z" />
    <glyph glyph-name="uniE6CE" unicode="&#xe6ce;" 
d="M743 90q1 1 5.5 4t6.5 5q11 10 10 26l-3 51l50 8q16 2 24 16q21 41 32.5 86t11.5 91v13l-1 4q-1 16 -14 25l-42 29l26 46q8 13 2 28q-40 94 -123 155q-6 4 -13.5 5.5t-14.5 -0.5l-49 -15l-19 48q-6 15 -21 19q-99 28 -197 0q-16 -4 -22 -19l-19 -48l-49 15q-15 4 -28 -5
q-83 -61 -123 -155q-1 -2 -1.5 -4.5t-0.5 -5.5v-4q0 -3 0.5 -5.5t1.5 -4.5l2 -4l26 -46l-42 -29q-7 -4 -10.5 -10.5t-3.5 -14.5v-5q-1 -8 -1 -12q0 -46 11.5 -91t33.5 -86q7 -14 23 -16l50 -8l-3 -51q-2 -15 10 -26q2 -2 6 -4.5t6 -4.5l-86 -140q-6 -10 -5.5 -20.5
t6.5 -19.5q14 -18 38 -11l79 22l50 -57q3 -4 7.5 -7t9.5 -4.5t10 -1.5q3 0 7 1q20 5 26 25l41 137q3 1 6 2.5t5 4.5l37 34l37 -34q9 -9 22 -9q3 0 5 1q30 5 58.5 15.5t55.5 25.5l46 -73l-20 5q-25 8 -43 -12l-27 -32l-5 14q-5 12 -17 18t-24.5 1.5t-18 -16.5t-0.5 -25
l21 -59q3 -9 10 -15t17 -8q3 -1 6 -1q8 0 15 3.5t12 9.5l50 57l80 -22q8 -2 15 -1.5t13 4t10 9.5q14 18 1 39zM377 -55l-25 29q-17 20 -43 12l-20 -5l45 73q17 -9 33.5 -16.5t33.5 -13.5zM534 122q-9 9 -22 9t-22 -9l-46 -43q-67 15 -120 58l4 64q1 5 -0.5 9.5t-3.5 8.5
t-5.5 7.5t-8 5.5t-9.5 3l-63 10q-30 62 -30 130l53 37q7 5 10.5 12t3.5 15t-4 15l-33 57q30 61 83 105l62 -19q6 -2 12 -1.5t11 3t9.5 7t6.5 10.5l24 60q66 15 132 0l24 -60q4 -12 15.5 -17.5t23.5 -1.5l62 19q26 -22 47 -48.5t36 -56.5l-33 -57q-4 -7 -4 -15t3.5 -15
t10.5 -12l53 -37q0 -68 -30 -130l-63 -10q-13 -2 -20.5 -11.5t-6.5 -22.5l4 -64q-53 -43 -120 -58zM512 158q-92 0 -157 65t-65 157q0 45 17.5 86t47.5 71t71 47.5t86 17.5q92 0 157 -65t65 -157q0 -45 -17.5 -86t-47.5 -71t-71 -47.5t-86 -17.5zM512 538
q-65 0 -111.5 -46.5t-46.5 -111.5t46.5 -111.5t111.5 -46.5t111.5 46.5t46.5 111.5t-46.5 111.5t-111.5 46.5z" />
    <glyph glyph-name="uniE6D2" unicode="&#xe6d2;" 
d="M960 -17l-42 417q-2 10 -5 20.5t-8 20t-11.5 18t-14.5 16.5t-17 14t-18.5 10.5t-19.5 7.5l-5 1q-3 0 -5.5 2t-4.5 5t-4 7t-3 9t-1.5 11.5t-0.5 13.5v64q0 20 -7.5 37.5t-20 30.5t-30 20.5t-36.5 7.5h-33q-19 0 -37 -6.5t-31 -17t-21 -25.5t-8 -31v-48q0 -3 0.5 -6t2 -6
t3 -5.5t4 -5t4.5 -3.5l6 -4q2 -1 5.5 -1.5t6.5 -0.5q7 0 12.5 2.5t10 7t7 10.5t2.5 12v48q0 5 10 10.5t23 5.5h33q13 0 21.5 -9.5t8.5 -22.5v-64q0 -29 7 -50.5t18 -33.5t21.5 -18t21.5 -8l4 -1q16 -4 30 -20t16 -32l32 -317h-203l-10 100q-4 38 -33.5 65t-68.5 27h-125
q-28 0 -60 -28t-36 -64l-10 -100h-203l20 320q1 12 8.5 25.5t17.5 25t21 16.5l13 7q31 16 51 49t20 69v32q0 13 10 22.5t23 9.5h32q9 0 16 -4.5t11 -11.5t4 -16v-61q0 -27 11 -49.5t30 -36t40 -13.5h112q7 0 13 2.5t10 7t6.5 10t2.5 12.5t-2.5 12.5t-6.5 10t-10 7t-13 2.5
h-112q-2 0 -6 4t-7.5 12.5t-3.5 18.5v61q0 40 -27.5 68t-67.5 28h-32q-39 0 -68 -28t-29 -68v-32q0 -12 -4.5 -24t-13 -22t-18.5 -15l-13 -6q-31 -16 -54.5 -49.5t-27.5 -69.5l-26 -419q-5 -40 21 -69.5t67 -29.5h138q38 0 68 27t34 66l19 192q0 4 2.5 8t5.5 8t6.5 7.5t7 6
t6.5 4t4 1.5h125q14 0 25.5 -10.5t13.5 -24.5l19 -192q4 -39 34 -66t68 -27h141q41 0 67 29.5t21 69.5zM293 -52h-138q-12 0 -19 8t-5 22l2 34h201l-3 -29q-1 -14 -12.5 -24.5t-25.5 -10.5zM891 -44q-7 -8 -19 -8h-141q-14 0 -25.5 10.5t-12.5 24.5l-3 29h203l4 -36
q1 -12 -6 -20z" />
    <glyph glyph-name="uniE6D3" unicode="&#xe6d3;" 
d="M929 524h-75q6 0 13 6t12.5 16t10 20t7.5 20q14 46 -17 87q-2 2 -4 5q-21 17 -44 26t-45.5 10t-46.5 -3.5t-44 -12t-40.5 -18.5t-35 -20t-27.5 -18q-7 -5 -10.5 -13t-3 -16.5t5.5 -15.5q7 -11 20 -13.5t24 5.5l1 1l2 1q13 9 27 18t38 20t45.5 16.5t46 3t42.5 -17.5
q9 -13 5 -27q-6 -16 -24 -31.5t-32 -20.5q-63 -24 -105 -27h-2l-3 -1h-89q-1 0 -2 2.5t-2 3.5q-109 101 -127 113q-88 61 -164.5 70t-128.5 -35l-5 -5q-30 -41 -16 -87q3 -10 7.5 -20t10 -20t12 -16t13.5 -6h-82q-13 0 -23 -10t-10 -23v-160q0 -8 0.5 -12.5t3.5 -9.5
t9.5 -7.5t18.5 -2.5v-313q0 -42 27.5 -72t65.5 -30h646q25 0 46.5 14t34 37.5t12.5 50.5v313q12 0 18.5 2.5t9.5 7.5t3.5 9.5t0.5 12.5v160q0 14 -9 23.5t-22 9.5zM357 525q-22 2 -43 7t-63 21q-13 4 -31 19.5t-23 32.5q-2 7 -1 13.5t5 12.5q16 12 35.5 17t39.5 2t39.5 -9
t39.5 -16t34 -18.5t27 -17.5q3 -2 12 -10t30 -27t31 -28h-126q-1 0 -3 0.5t-3 0.5zM896 460v-96h-764l-4 -1v97h768zM835 -52h-646q-12 0 -20.5 12t-8.5 26v314h704v-314q0 -14 -9 -26t-20 -12z" />
    <glyph glyph-name="uniE6D4" unicode="&#xe6d4;" 
d="M832 716h-640q-40 0 -68 -28t-28 -68v-640q0 -40 28 -68t68 -28h640q40 0 68 28t28 68v640q0 40 -28 68t-68 28zM727 374l-256 -259v-1q-2 -2 -6 -4q-1 0 -1.5 -0.5t-1.5 -1t-2 -1.5q-6 -2 -12 -2t-12 2l-2 2q-1 0 -1 1q-6 3 -7 4v1h-1l-126 129q-6 6 -8 14.5t0.5 16.5
t8.5 15q9 9 22.5 8.5t22.5 -9.5l103 -106l234 236q9 9 22.5 9t22.5 -9.5t9.5 -22.5t-9.5 -22z" />
    <glyph glyph-name="uniE6D5" unicode="&#xe6d5;" 
d="M832 -116h-640q-40 0 -68 28t-28 68v640q0 40 28 68t68 28h640q40 0 68 -28t28 -68v-640q0 -40 -28 -68t-68 -28zM192 652q-13 0 -22.5 -9.5t-9.5 -22.5v-640q0 -13 9.5 -22.5t22.5 -9.5h640q13 0 22.5 9.5t9.5 22.5v640q0 13 -9.5 22.5t-22.5 9.5h-640z" />
    <glyph glyph-name="uniE6D6" unicode="&#xe6d6;" 
d="M727 418.5q-9 9.5 -22.5 9.5t-22.5 -9l-234 -236l-103 106q-9 9 -22.5 9.5t-23 -9t-9.5 -22.5t9 -23l126 -129h1v-1q1 -1 5 -4h2l1 -1l2 -2q6 -2 12 -2q7 0 12 2q1 1 2 1.5t1.5 1t1.5 0.5q4 2 6 4v1l256 259q10 9 9.5 22t-9.5 22.5zM832 -116h-640q-40 0 -68 28t-28 68
v640q0 40 28 68t68 28h640q40 0 68 -28t28 -68v-640q0 -40 -28 -68t-68 -28zM192 652q-13 0 -22.5 -9.5t-9.5 -22.5v-640q0 -13 9.5 -22.5t22.5 -9.5h640q13 0 22.5 9.5t9.5 22.5v640q0 13 -9.5 22.5t-22.5 9.5h-640z" />
    <glyph glyph-name="uniE6D7" unicode="&#xe6d7;" 
d="M512 -148q-185 0 -316.5 131.5t-131.5 316.5t131.5 316.5t316.5 131.5t316.5 -131.5t131.5 -316.5t-131.5 -316.5t-316.5 -131.5zM512 684q-159 0 -271.5 -112.5t-112.5 -271.5t112.5 -271.5t271.5 -112.5t271.5 112.5t112.5 271.5t-112.5 271.5t-271.5 112.5z" />
    <glyph glyph-name="uniE6D8" unicode="&#xe6d8;" 
d="M829 615q-64 64 -145.5 97.5t-171.5 33.5t-171.5 -33.5t-145.5 -97.5q-42 -42 -71.5 -92.5t-44.5 -107t-15 -115.5q0 -89 34 -170.5t97 -144.5q42 -42 93 -71.5t107.5 -44.5t116.5 -15q90 0 171.5 33.5t145 97t97.5 145t34 170.5q0 59 -15 115.5t-44.5 107t-71.5 92.5z
M736 268h-192v-192q0 -13 -9.5 -22.5t-22.5 -9.5t-22.5 9.5t-9.5 22.5v192h-192q-13 0 -22.5 9.5t-9.5 22.5t9.5 22.5t22.5 9.5h192v192q0 13 9.5 22.5t22.5 9.5t22.5 -9.5t9.5 -22.5v-192h192q13 0 22.5 -9.5t9.5 -22.5t-9.5 -22.5t-22.5 -9.5z" />
    <glyph glyph-name="uniE6D9" unicode="&#xe6d9;" 
d="M512 -146q-90 0 -171.5 33.5t-145 97t-97.5 145t-34 170.5q0 59 15 115.5t44.5 107t71.5 92.5q64 64 145.5 97.5t171.5 33.5t171.5 -33.5t145 -97t97.5 -145t34 -170.5t-34 -170.5t-97.5 -145t-145 -97t-171.5 -33.5zM512 682q-77 0 -147 -29t-124.5 -83t-83.5 -123.5
t-29 -146.5t29 -146.5t83.5 -123.5t124.5 -83t147 -29q51 0 99.5 13t92 38t80.5 61q54 54 83 124t29 146.5t-29 146t-83.5 123.5t-124.5 83t-147 29zM736 332h-192v192q0 13 -9.5 22.5t-22.5 9.5t-22.5 -9.5t-9.5 -22.5v-192h-192q-13 0 -22.5 -9.5t-9.5 -22.5t9.5 -22.5
t22.5 -9.5h192v-192q0 -13 9.5 -22.5t22.5 -9.5t22.5 9.5t9.5 22.5v192h192q13 0 22.5 9.5t9.5 22.5t-9.5 22.5t-22.5 9.5z" />
    <glyph glyph-name="uniE6DE" unicode="&#xe6de;" 
d="M887 195l-353 350l-1 1h-1v1q-18 17 -39 4q-4 -2 -6 -5l-350 -353q-5 -5 -7.5 -11t-2.5 -12t2.5 -12t7.5 -10q3 -3 6.5 -5t7.5 -3t8 -1q14 0 23 9l328 331l332 -330q10 -9 23 -9q6 0 12 2.5t11 7.5q3 3 5.5 8t3 9.5t0 9.5t-3 9.5t-6.5 8.5z" />
    <glyph glyph-name="uniE6DF" unicode="&#xe6df;" 
d="M205 -51h-11q-53 5 -93 55t-59 132.5t-11 179.5q12 150 74.5 246t143.5 89q55 -5 106 -76q8 -11 5.5 -24t-12.5 -21q-7 -5 -15.5 -6t-16.5 2.5t-13 10.5q-18 25 -32 37t-27 13q-47 4 -93 -75.5t-56 -201.5q-5 -61 2 -116.5t22.5 -93.5t36.5 -61.5t44 -25.5
q26 -2 51.5 17.5t46 58.5t34.5 91q3 11 11.5 17.5t19.5 6.5h300q5 0 10 -1.5t9 -5t7 -7.5t5 -10q22 -80 58.5 -125.5t76.5 -40.5q22 2 42 24t34 60q35 91 22 215q-6 60 -22.5 113.5t-41.5 92.5q-22 35 -46 52.5t-46 15.5q-29 -3 -60 -49q-9 -14 -26 -14h-237
q-13 0 -22.5 9.5t-9.5 22.5t9.5 22.5t22.5 9.5h220q45 57 97 62q80 9 145.5 -87t80.5 -244q14 -139 -26 -244q-21 -56 -54.5 -88.5t-75.5 -36.5q-61 -6 -113.5 44.5t-82.5 145.5h-252q-27 -90 -75.5 -140.5t-106.5 -50.5zM320 364h-32v32q0 13 -9.5 22.5t-22.5 9.5
t-22.5 -9.5t-9.5 -22.5v-32h-32q-13 0 -22.5 -9.5t-9.5 -22.5t9.5 -22.5t22.5 -9.5h32v-32q0 -13 9.5 -22.5t22.5 -9.5t22.5 9.5t9.5 22.5v32h32q13 0 22.5 9.5t9.5 22.5t-9.5 22.5t-22.5 9.5zM800 428zM736 428q0 26 19 45t45 19t45 -19t19 -45t-19 -45t-45 -19t-45 19
t-19 45zM672 300zM608 300q0 26 19 45t45 19t45 -19t19 -45t-19 -45t-45 -19t-45 19t-19 45z" />
    <glyph glyph-name="uniE6E0" unicode="&#xe6e0;" 
d="M516 460q-3 0 -6 1l-356 64q-7 1 -13 5.5t-9.5 11t-3.5 14.5v96q0 40 28 68t68 28h576q40 0 68 -28t28 -68v-96q0 -12 -7.5 -20.5t-18.5 -10.5l-348 -64q-3 -1 -6 -1zM192 583l324 -58l316 58v69q0 13 -9.5 22.5t-22.5 9.5h-576q-13 0 -22.5 -9.5t-9.5 -22.5v-69z
M800 -148h-576q-40 0 -68 28t-28 68v480q0 13 9.5 22.5t22.5 9.5t22.5 -9.5t9.5 -22.5v-480q0 -13 9.5 -22.5t22.5 -9.5h576q13 0 22.5 9.5t9.5 22.5v480q0 13 9.5 22.5t22.5 9.5t22.5 -9.5t9.5 -22.5v-480q0 -40 -28 -68t-68 -28zM608 172q13 0 22.5 9.5t9.5 22.5
t-9.5 22.5t-22.5 9.5h-52l76 73q10 10 10 23t-9 22q-5 5 -10.5 7.5t-12 2.5t-12.5 -2t-10 -7l-77 -73l-73 73q-9 9 -22.5 9t-23 -9.5t-9.5 -22.5t10 -22l74 -74h-51q-9 0 -16.5 -4.5t-11.5 -11.5t-4 -16q0 -13 9 -22.5t23 -9.5h64v-32h-64q-14 0 -23 -9.5t-9 -22.5
q0 -9 4 -16t11.5 -11.5t16.5 -4.5h64v-64q0 -14 9.5 -23t22.5 -9t22.5 9t9.5 23v64h64q6 0 12 2.5t10.5 7t7 10t2.5 12.5q0 13 -9.5 22.5t-22.5 9.5h-64v32h64z" />
    <glyph glyph-name="uniE6E1" unicode="&#xe6e1;" 
d="M896 389l-1 5q0 8 -3.5 14.5t-10.5 10.5l-42 29l26 46q8 13 2 28q-40 94 -123 155q-13 10 -28 5l-49 -15l-19 48q-2 3 -4 6.5t-4.5 6t-6 4t-6.5 2.5q-99 28 -197 0l-6 -2q-3 -1 -5 -3l-4 -4q-2 -2 -4 -4.5t-3 -5.5l-19 -48l-49 15q-15 4 -28 -5q-83 -61 -123 -155
q-6 -15 2 -28l26 -46l-42 -29q-3 -2 -5 -4t-4 -5l-2 -4q-2 -3 -2.5 -6t-0.5 -6v-4q-1 -8 -1 -13q0 -46 11.5 -91t33.5 -86q7 -14 23 -16l50 -8l-3 -51q-1 -3 -0.5 -6t1.5 -5l2 -6q1 -2 3 -4.5t4 -4.5q78 -68 179 -86q2 -1 5 -1t6 0.5t6 1.5t5.5 3t4.5 4l37 34l37 -34
q12 -11 27 -8q101 18 179 86q12 10 10 26l-3 51l50 8q16 2 24 16q44 83 44 177v12zM528 204q-73 0 -124.5 51.5t-51.5 124.5q0 36 14 68.5t37.5 56t56 37.5t68.5 14q73 0 124.5 -51.5t51.5 -124.5q0 -24 -6.5 -47t-17.5 -42t-27.5 -35.5t-35.5 -27.5t-42 -17.5t-47 -6.5z
M778 61q-39 -31 -84 -52t-94 -30q-5 0 -11 1l28 -106q7 -20 27 -24h6q8 0 15 3t12 9l50 58l94 -23q23 -6 37 12q6 9 6 20t-6 21zM468 -21q-3 0 -6 1q-33 6 -65.5 17.5t-62 29t-55.5 39.5l-82 -118q-13 -20 1 -38.5t37 -12.5l93 23l50 -57q11 -13 27 -13l7 1q20 4 26 25
l31 103h-1z" />
    <glyph glyph-name="uniE6E2" unicode="&#xe6e2;" 
d="M307 361q-73 0 -124.5 51.5t-51.5 124.5t51.5 124.5t124.5 51.5q48 0 88.5 -23.5t64 -64t23.5 -88.5q0 -73 -51.5 -124.5t-124.5 -51.5zM307 649q-47 0 -79.5 -33t-32.5 -79t32.5 -79t79 -33t79.5 33t33 79q0 30 -15 56t-41 41t-56 15zM719.5 361q-72.5 0 -124.5 51.5
t-52 124.5q0 36 14 68.5t37.5 56t56.5 37.5t68 14q73 0 124.5 -51.5t51.5 -124.5t-51.5 -124.5t-124 -51.5zM719 649q-46 0 -79 -33t-33 -79q0 -30 15 -56t41 -41t56 -15q47 0 79.5 33t32.5 79q0 30 -15 56t-40.5 41t-56.5 15zM304 -89q-73 0 -124.5 51.5t-51.5 124
t51.5 124.5t124 52t124.5 -52t52 -124q0 -48 -24 -88.5t-64.5 -64t-87.5 -23.5zM304 199q-47 0 -79.5 -33t-32.5 -79.5t32.5 -79t79 -32.5t79.5 32.5t33 79.5q0 30 -15 56t-41 41t-56 15zM923 -95l-66 69q41 48 41 113q0 72 -51.5 124t-124 52t-124.5 -52t-52 -124
q0 -67 45.5 -117t112.5 -58h4q12 0 21 8t10 20q2 8 -1.5 16t-10.5 13t-15 7q-43 5 -72.5 37t-29.5 74q0 30 15 56t41 41t56 15q47 0 79.5 -33t32.5 -79q0 -13 -2.5 -25.5t-8 -24t-13.5 -21.5t-19 -18q-10 -8 -11.5 -21t6.5 -23q4 -6 11 -9q1 -1 1.5 -2.5t1.5 -2.5l77 -79
q9 -10 23 -10q13 0 22 9q10 9 10 22t-9 23z" />
    <glyph glyph-name="uniE6E3" unicode="&#xe6e3;" 
d="M864 428h-189q7 17 13 46.5t9 67.5t-2 76q-5 45 -30 77.5t-63 45.5q-14 5 -28.5 6.5t-27.5 -0.5t-24.5 -7.5t-19.5 -13.5q-12 -12 -22 -35t-15.5 -41t-13.5 -52q-17 -70 -28 -89q-20 -34 -57.5 -57.5t-51.5 -23.5h-90q-9 0 -16 -4.5t-11.5 -11.5t-4.5 -16v-448
q0 -13 9.5 -22.5t22.5 -9.5h87q8 0 45 -16t91.5 -32t104.5 -16h216q33 0 68.5 13t51 38.5t44 207.5t28.5 220q0 26 -15 48.5t-37 35.5t-44 13zM96 428q-13 0 -22.5 -9.5t-9.5 -22.5v-448q0 -9 4.5 -16t11.5 -11.5t16 -4.5q13 0 22.5 9.5t9.5 22.5v448q0 13 -9.5 22.5
t-22.5 9.5z" />
    <glyph glyph-name="uniE6E4" unicode="&#xe6e4;" 
d="M512 746q-73 0 -141 -22.5t-122.5 -64t-96 -96t-64 -122.5t-22.5 -141q0 -91 35.5 -173.5t95 -142t142 -95t173.5 -35.5t173.5 35.5t142 95t95 142t35.5 173.5t-35.5 173.5t-95 142t-142 95t-173.5 35.5zM544 76q0 -13 -9.5 -22.5t-22.5 -9.5t-22.5 9.5t-9.5 22.5v288
q0 13 9.5 22.5t22.5 9.5t22.5 -9.5t9.5 -22.5v-288zM512 460q-20 0 -34 14t-14 34t14 34t34 14t34 -14t14 -34t-14 -34t-34 -14z" />
    <glyph glyph-name="uniE6E5" unicode="&#xe6e5;" 
d="M512 -146q-91 0 -173.5 35.5t-142 95t-95 142t-35.5 173.5q0 61 16 118.5t45 106.5t70 90t90 70t106.5 45t118.5 16q91 0 173.5 -35.5t142 -95t95 -142t35.5 -173.5q0 -61 -16 -118.5t-45 -106.5t-70 -90t-90 -70t-106.5 -45t-118.5 -16zM512 682q-104 0 -192 -51
t-139 -139t-51 -192t51 -192t139 -139t192 -51t192 51t139 139t51 192t-51 192t-139 139t-192 51zM512 508zM464 508q0 20 14 34t34 14t34 -14t14 -34t-14 -34t-34 -14t-34 14t-14 34zM512 44q-13 0 -22.5 9.5t-9.5 22.5v288q0 13 9.5 22.5t22.5 9.5t22.5 -9.5t9.5 -22.5
v-288q0 -13 -9.5 -22.5t-22.5 -9.5z" />
    <glyph glyph-name="uniE6E8" unicode="&#xe6e8;" 
d="M153 459l-51 -79l93 -58l4 -2l8 -6q6 -5 11 -10t10 -13t7 -17t0.5 -21t-7.5 -24q-28 -57 -164 -182l122 -77q19 41 35 76t24 51t14.5 30t10.5 23t7.5 19t8.5 28q18 49 17 89.5t-27 67.5q-36 36 -53.5 50.5t-69.5 54.5zM219 489q22 0 40.5 9.5t29.5 26t11 36.5
q0 15 -6.5 28.5t-17.5 23t-25.5 15.5t-31.5 6q-33 0 -56.5 -21.5t-23.5 -51.5q0 -20 10.5 -36.5t29 -26t40.5 -9.5zM945 480q-1 4 -2.5 11t-13.5 26t-30 34.5t-55 29.5t-85 18.5t-124 -5t-168 -35.5q8 15 15.5 29t9.5 20l3 6l-112 32l-5 -16q-4 -11 -16.5 -40.5t-26 -55.5
t-35 -56.5t-44.5 -50.5q5 -3 13 -7.5t25 -14.5t28.5 -16.5t11.5 -5.5q33 33 60 68q25 11 52 22q-50 -89 -88 -130l47 -42q4 3 10.5 9.5t24 24.5t33.5 35h40v-70h-157v-56h157v-133h-6q-18 1 -32.5 5t-22.5 15q-5 10 -6 23.5t1.5 33.5t2.5 25h-109l-4 -3q0 -2 -1 -6t-2 -16
t-1.5 -24t1.5 -28t6.5 -29.5t13 -27.5t21.5 -23.5t32.5 -15.5t44.5 -5q169 -5 267 71l16 -59l89 38l-60 148l-73 -23l14 -50q-13 -11 -29 -18.5t-34 -14.5v117h153v56h-153v70h154v56h-274q11 12 18.5 23t13.5 20.5t8 16.5l-48 13q319 116 318 -60v-318v-7q0 -4 -1 -15
t-4 -21t-11 -22t-20 -20.5t-31.5 -13.5t-45.5 -3l-67 14l-16 -64l58 -11q167 -22 228 68q23 34 29 84q6 63 8 124.5t0 104t-5 75.5t-6 49z" />
    <glyph glyph-name="uniE6E9" unicode="&#xe6e9;" 
d="M960 499q0 16 -1 27q0 35 -5 59q-1 8 -2.5 14.5t-3.5 13.5l-6 14q-2 7 -6 14q-2 5 -5.5 10.5t-7 10t-7 9.5t-7.5 9t-8 9q-24 23 -48 35q-13 7 -26.5 11t-29.5 7q-24 5 -59 5q-11 1 -27 1h-17h-16h-332h-33q-16 0 -27 -1q-16 0 -31 -1t-28 -4q-16 -3 -29.5 -7t-26.5 -11
q-24 -12 -48 -35q-23 -24 -35 -48t-18 -56q-5 -24 -5 -59q0 -3 -0.5 -5t-0.5 -5v-8v-9v-33v-332v-33q0 -17 1 -27q0 -35 5 -59q6 -33 18 -56q12 -24 35 -48q12 -11 23.5 -20t24.5 -15q24 -12 56 -18q24 -5 59 -5q6 -1 12 -1h15h33h332h33q16 0 27 1q17 0 31.5 1t27.5 4
q10 2 19 4t18.5 5.5t18.5 8.5q24 12 48 35q23 24 35 48q12 23 18 56q5 24 5 59q1 11 1 27v33v332v15v18zM281 573q26 0 44.5 -17t18.5 -41t-18.5 -41t-44.5 -17q-18 0 -32.5 7.5t-23 21t-8.5 29.5q0 35 34 52q15 6 30 6zM334 224q-7 -20 -11.5 -31.5t-9 -22t-21.5 -46.5
t-38 -82l-97 62q12 11 31 29t54.5 57t45.5 60q9 24 3.5 40.5t-17.5 24.5l-12 8l-75 47l41 63q42 -32 55.5 -43.5t41.5 -40.5q21 -21 22 -53.5t-13 -71.5zM861 155q-4 -37 -20 -63t-38 -38.5t-48.5 -19t-51.5 -5.5t-45.5 3.5t-33.5 5.5t-13 4l13 51l53 -12q28 -1 47.5 6.5
t26.5 19.5t12 25t3.5 21.5t-0.5 9.5v255q1 71 -64.5 82t-187.5 -34l38 -11q-4 -15 -31 -48h217v-45h-122v-56h122v-44h-122v-94q29 10 50 26l-11 41l57 18l48 -119l-70 -30l-13 47q-78 -60 -212 -57q-34 -1 -56 13.5t-29 35.5t-8.5 41.5t0.5 35.5l2 15l3 1h86q0 -3 -1.5 -19
t-1 -27t4.5 -19q6 -8 17.5 -11.5t26.5 -4.5h5v107h-125v44h125v56h-32l-54 -55l-38 33q18 19 36 47t34 57q-3 -1 -5.5 -2t-6 -2.5t-5.5 -2.5t-6 -2.5t-6 -2.5l-6 -3q-4 -2 -6 -2q-21 -27 -48 -55l-62 36q18 15 35 39t28.5 47t20.5 43.5t13 32.5l4 13l89 -25q0 -2 -2 -6
t-7.5 -15.5t-12.5 -23.5q57 16 107 24.5t85.5 9t64.5 -4t48 -13.5t33.5 -19t22 -21t12 -19.5t5.5 -14.5l1 -5q0 -2 0.5 -4.5t2 -12t3 -20t2.5 -27.5t2 -34.5t1.5 -40.5t0 -46.5t-2 -52t-4.5 -57.5z" />
    <glyph glyph-name="uniE6EA" unicode="&#xe6ea;" 
d="M952 318l-384 419q-15 17 -35.5 9t-20.5 -30v-225q-56 -4 -107 -20t-96 -43.5t-84 -67.5t-72 -91q-19 -30 -35 -64t-25 -58.5t-16.5 -49t-9 -33.5t-2.5 -14q-5 -23 15 -34t37 4q5 5 19 15.5t52.5 33.5t82 42.5t109 36.5t132.5 20v-284q0 -22 20 -30q6 -2 12 -2
q14 0 23 10l384 413q9 9 9 21.5t-8 21.5z" />
    <glyph glyph-name="uniE6EB" unicode="&#xe6eb;" 
d="M544 -148q-3 0 -6 0.5t-6 1.5q-9 4 -14.5 12t-5.5 18v287q-195 -9 -357 -122q-24 -17 -37 -28q-18 -16 -38 -5t-15 34q2 14 7.5 36t28 78.5t52.5 104.5q69 109 168.5 166t222.5 57q9 0 16 -4.5t11.5 -11.5t4.5 -16q0 -13 -9.5 -22.5t-22.5 -9.5q-68 0 -128 -21
t-100.5 -52t-74.5 -74.5t-53 -80t-35 -75.5q182 111 391 111q13 0 22.5 -9.5t9.5 -22.5v-238l308 330l-308 335v-43q0 -13 -9.5 -22.5t-22.5 -9.5t-22.5 9.5t-9.5 22.5v125q0 21 20.5 29t35.5 -8l384 -416q8 -9 8 -21.5t-9 -21.5l-384 -413q-9 -10 -23 -10z" />
    <glyph glyph-name="uniE6EC" unicode="&#xe6ec;" 
d="M512 748q-185 0 -316.5 -131.5t-131.5 -316.5t131.5 -316.5t316.5 -131.5t316.5 131.5t131.5 316.5t-131.5 316.5t-316.5 131.5zM641 236q13 0 22.5 -9.5t9.5 -22.5t-9.5 -22.5t-22.5 -9.5h-97v-95q0 -13 -9.5 -22.5t-22.5 -9.5t-22.5 9.5t-9.5 22.5v95h-95
q-3 0 -6.5 0.5t-6 2t-5.5 3t-5 4t-4 4.5l-2 6q-2 2 -2.5 5.5t-0.5 6.5q0 13 9.5 22.5t22.5 9.5h95v64h-95q-4 0 -7.5 1t-6.5 2.5t-6 3.5t-5 5t-3.5 6t-2.5 6.5t-1 7.5q0 13 9.5 22.5t22.5 9.5h95v20l-118 118q-10 10 -9.5 23t9.5 23q6 6 14.5 8t16.5 0t14 -8l108 -108
l101 107q10 10 23 10t22.5 -9t10 -22t-9.5 -23l-118 -124v-15h97q13 0 22.5 -9.5t9.5 -22.5t-9.5 -22.5t-22.5 -9.5h-97v-64h97z" />
    <glyph glyph-name="uniE6ED" unicode="&#xe6ed;" 
d="M512 748q-185 0 -316.5 -131.5t-131.5 -316.5t131.5 -316.5t316.5 -131.5t316.5 131.5t131.5 316.5t-131.5 316.5t-316.5 131.5zM512 -84q-159 0 -271.5 112.5t-112.5 271.5t112.5 271.5t271.5 112.5t271.5 -112.5t112.5 -271.5t-112.5 -271.5t-271.5 -112.5zM641 300
q13 0 22.5 9.5t9.5 22.5t-9.5 22.5t-22.5 9.5h-97v15l119 124q9 10 8.5 23t-9.5 22q-5 5 -11 7t-12 2t-12 -2.5t-10 -7.5l-102 -107l-107 108q-10 9 -23 9t-23 -9q-4 -5 -6.5 -11t-3 -12t2 -12t7.5 -11l118 -118v-20h-95q-13 0 -22.5 -9.5t-9.5 -22.5t9.5 -22.5t22.5 -9.5
h95v-64h-95q-13 0 -22.5 -9.5t-9.5 -22.5t9.5 -22.5t22.5 -9.5h95v-95q0 -13 9.5 -22.5t22.5 -9.5t22.5 9.5t9.5 22.5v95h97q13 0 22.5 9.5t9.5 22.5t-9.5 22.5t-22.5 9.5h-97v64h97z" />
    <glyph glyph-name="uniE6EE" unicode="&#xe6ee;" 
d="M859 -52h-694q-42 0 -71.5 29.5t-29.5 71.5v502q0 42 29.5 71.5t71.5 29.5h694q16 0 31.5 -5t28 -14.5t22 -22t14.5 -28t5 -31.5v-502q0 -42 -29.5 -71.5t-71.5 -29.5zM165 588q-15 0 -26 -11t-11 -26v-502q0 -10 5 -18.5t13.5 -13.5t18.5 -5h694q15 0 26 11t11 26v502
q0 15 -11 26t-26 11h-694zM800 396h-576q-13 0 -22.5 9.5t-9.5 22.5t9.5 22.5t22.5 9.5h576q13 0 22.5 -9.5t9.5 -22.5t-9.5 -22.5t-22.5 -9.5zM320 76h-96q-13 0 -22.5 9.5t-9.5 22.5t9.5 22.5t22.5 9.5h96q13 0 22.5 -9.5t9.5 -22.5t-9.5 -22.5t-22.5 -9.5z" />
    <glyph glyph-name="uniE6F2" unicode="&#xe6f2;" 
d="M244 187q-13 0 -22 9t-9.5 22.5t8.5 22.5q59 60 135 92.5t160 32.5q82 0 156.5 -31t133.5 -89q9 -10 9 -23t-9.5 -22.5t-22.5 -9.5t-23 9q-101 102 -244 102q-71 0 -135 -27.5t-114 -77.5q-9 -10 -23 -10zM97.5 350q-13.5 0 -22.5 9q-6 6 -8.5 14t0 16.5t8.5 14.5
q58 59 129 100t150 62.5t162 21.5q123 0 235.5 -46.5t200.5 -133.5q10 -9 10 -22t-9.5 -22.5t-22.5 -9.5t-23 9q-52 52 -115 88t-133 54.5t-143 18.5q-113 0 -215 -42.5t-181 -122.5q-9 -9 -22.5 -9zM511 -21q-12 0 -21 9l-96 88q-9 9 -9.5 22t7.5 23q48 55 119 55
q76 0 123 -60q8 -10 7 -22.5t-11 -21.5l-98 -85q-3 -2 -6.5 -4t-7 -3t-7.5 -1zM464 99l48 -45l50 43q-22 14 -49 14.5t-49 -12.5z" />
    <glyph glyph-name="uniE6F3" unicode="&#xe6f3;" 
d="M769 108q-54 0 -91 -38l-310 172q4 7 6.5 13.5t4.5 14t3 15t1 15.5q0 17 -6 36l305 189q37 -33 85 -33q53 0 90.5 37.5t37.5 90.5t-37.5 90.5t-90.5 37.5t-90.5 -37.5t-37.5 -90.5q0 -10 2 -20.5t6 -20.5l-302 -188q-38 37 -90 37q-53 0 -90.5 -37.5t-37.5 -90.5
t37.5 -90.5t90.5 -37.5q38 0 70 21l321 -179q-5 -18 -5 -34q0 -53 37.5 -90.5t90.5 -37.5t90.5 37.5t37.5 90.5t-37.5 90.5t-90.5 37.5zM767 684q27 0 45.5 -19t18.5 -45q0 -10 -3 -20t-9 -18t-14 -14t-17.5 -9t-20.5 -3q-26 0 -45 18.5t-19 45.5q0 7 2 14.5t5 13.5t7.5 12
t10 10t11.5 7.5t13.5 5t14.5 1.5zM191 300q0 27 19 45.5t45.5 18.5t45 -18.5t18.5 -45t-18.5 -45.5t-45.5 -19q-9 0 -17 2.5t-15 6.5t-13 10t-10 13t-6.5 15t-2.5 17zM769 -84q-27 0 -45.5 19t-18.5 45q0 18 8.5 32.5t23 23t32.5 8.5q26 0 45 -18.5t19 -45.5
q0 -17 -8.5 -31.5t-23.5 -23.5t-32 -9z" />
    <glyph glyph-name="uniE6F4" unicode="&#xe6f4;" 
d="M863 300q0 116 -68 211q-8 10 -21 12.5t-23.5 -5.5t-13 -21t5.5 -24q9 -12 17 -25.5t14 -27.5t11 -29t8 -30t4.5 -30t1.5 -31q0 -95 -56 -173q-8 -11 -5.5 -24t12.5 -21q9 -6 19 -6q4 0 7.5 1t7 2.5t6.5 4t5 5.5q68 95 68 211zM272 518q-5 3 -9.5 4.5t-9.5 1.5t-10 -1.5
t-9 -4.5t-7 -7q-68 -95 -68 -211t68 -211q3 -4 7.5 -7t9 -4.5t9.5 -1.5h4q2 0 4 0.5t3.5 1.5t3.5 2l4 2q4 3 7 7t4.5 9t1.5 10t-1.5 9.5t-4.5 9.5q-27 38 -41.5 82t-14.5 91t14.5 91t41.5 82q8 11 5.5 24t-12.5 21zM851 673q-8 10 -21.5 11t-23.5 -8q-6 -6 -9 -14
t-1.5 -16.5t7.5 -14.5q24 -28 44 -58.5t35 -63t25.5 -67t15.5 -70.5t5 -72q0 -61 -14.5 -119.5t-42.5 -112t-68 -99.5q-9 -10 -8 -23t11 -22q9 -8 21 -8q15 0 24 11q68 78 104.5 174t36.5 199t-36.5 199t-104.5 174zM97 300q0 61 14.5 119.5t42.5 112t68 99.5q9 10 8 23
t-11 22q-6 6 -14.5 7.5t-16.5 -1t-14 -9.5q-68 -78 -104.5 -174t-36.5 -199t36.5 -199t104.5 -174q9 -11 24 -11q6 0 11.5 2t9.5 6q10 9 11 22t-8 23q-60 69 -92.5 154.5t-32.5 176.5zM692 164l2 2l2 4l2 2t2 2.5t2 2.5l2 4q5 9 8 14q1 1 1 3l2 2q4 8 6 15q1 1 2 3v3l5 14
q1 1 1.5 4t1.5 4q2 10 3 13q0 1 0.5 3t0.5 4.5t1 3.5q0 1 0.5 4.5t0.5 5.5q1 12 1 23q0 93 -65.5 158.5t-158.5 65.5q-61 0 -112.5 -30t-81.5 -81.5t-30 -112.5v-6q0 -3 0.5 -6t0.5 -6v-6h1q1 -16 5 -31t10 -29.5t13 -27.5q6 -10 13 -19q0 -1 1 -1q6 -9 14 -17v-1l1 -1
l15 -15l1 -1v0q39 -35 90 -49q-9 -14 -18 -23q-10 -10 -9.5 -23t9.5 -23q3 -3 7 -5t8 -3t8 -1q13 0 23 10q26 27 42 60q1 0 3 0.5t3 0.5q7 0 11 1q5 0 11 2q6 1 11 2q3 0 10 2q8 2 11 4q5 1 9 3l12 4q1 1 7 4l12 6l6 4q7 4 12 8q1 0 5 3q3 3 6 5t6 5l4 3q2 2 3.5 4t3.5 3.5
t4 3.5q1 2 3 4q7 6 11 12q1 2 3 4z" />
    <glyph glyph-name="uniE6F5" unicode="&#xe6f5;" 
d="M863 300q0 116 -68 211q-8 10 -21 12.5t-23.5 -5.5t-13 -21t5.5 -24q9 -12 17 -25.5t14 -27.5t11 -29t8 -30t4.5 -30t1.5 -31q0 -95 -56 -173q-8 -11 -5.5 -24t12.5 -21q9 -6 19 -6q4 0 7.5 1t7 2.5t6.5 4t5 5.5q68 95 68 211zM272 518q-5 3 -9.5 4.5t-9.5 1.5t-10 -1.5
t-9 -4.5t-7 -7q-68 -95 -68 -211t68 -211q3 -4 7.5 -7t9 -4.5t9.5 -1.5h4q2 0 4 0.5t3.5 1.5t3.5 2l4 2q4 3 7 7t4.5 9t1.5 10t-1.5 9.5t-4.5 9.5q-27 38 -41.5 82t-14.5 91t14.5 91t41.5 82q8 11 5.5 24t-12.5 21zM851 673q-8 10 -21.5 11t-23.5 -8q-6 -6 -9 -14
t-1.5 -16.5t7.5 -14.5q24 -28 44 -58.5t35 -63t25.5 -67t15.5 -70.5t5 -72q0 -61 -14.5 -119.5t-42.5 -112t-68 -99.5q-9 -10 -8 -23t11 -22q9 -8 21 -8q15 0 24 11q68 78 104.5 174t36.5 199t-36.5 199t-104.5 174zM97 300q0 61 14.5 119.5t42.5 112t68 99.5q9 10 8 23
t-11 22q-6 6 -14.5 7.5t-16.5 -1t-14 -9.5q-68 -78 -104.5 -174t-36.5 -199t36.5 -199t104.5 -174q9 -11 24 -11q6 0 11.5 2t9.5 6q10 9 11 22t-8 23q-60 69 -92.5 154.5t-32.5 176.5zM514.5 524q-92.5 0 -158.5 -65.5t-66 -158.5q0 -48 19.5 -91.5t55.5 -75.5q10 -9 23 -8
t22 11q6 6 7.5 14.5t-1 16.5t-8.5 14q-54 48 -54 119q0 43 21.5 80t58.5 58.5t80 21.5q66 0 113 -47t47 -113q0 -43 -21.5 -80t-58 -58.5t-80.5 -21.5h-11q-10 0 -18.5 -6t-11.5 -15q-12 -33 -36 -58q-10 -10 -9.5 -23t9.5 -23q5 -4 11 -6.5t12 -2.5q13 0 23 10q26 27 42 60
q89 4 151 69t62 155q0 93 -65.5 158.5t-158 65.5z" />
    <glyph glyph-name="uniE6F8" unicode="&#xe6f8;" 
d="M893.5 440.5q-8.5 19.5 -29.5 19.5h-248l55 249q5 24 -16 35q-9 5 -19.5 3.5t-18.5 -8.5l-480 -480q-15 -15 -6.5 -35t29.5 -20h242l-112 -309q-4 -11 -0.5 -21.5t13.5 -16.5q2 -2 5 -3t6 -1.5t6 -0.5q4 0 8 1t8 3t7 6l544 543q15 16 6.5 35.5z" />
    <glyph glyph-name="uniE6FA" unicode="&#xe6fa;" 
d="M320 -148q-5 0 -9 1.5t-8 3.5q-10 6 -13.5 16.5t0.5 21.5l112 309h-242q-3 0 -5.5 0.5t-4.5 1.5l-6 2q-2 1 -4 3l-4 4q-2 2 -3.5 4t-2.5 5q-3 9 -1 18.5t8 16.5l480 480q10 9 23 9t23 -9q17 -18 5 -39q-3 -4 -5 -7l-426 -425h211q17 0 26.5 -13.5t3.5 -29.5l-79 -216
l388 387h-211q-13 0 -22.5 9.5t-9.5 22.5t9.5 22.5t22.5 9.5h288q21 0 29.5 -19.5t-6.5 -35.5l-544 -544q-10 -9 -23 -9z" />
    <glyph glyph-name="uniE6FE" unicode="&#xe6fe;" 
d="M954 -2l-137 180q79 76 79 185q0 106 -75 181t-181 75t-181 -75t-75 -181t75 -181t181 -75q67 0 125 33l138 -181q10 -12 26 -12h5q3 0 5 1t4.5 2.5t4.5 2.5q11 8 12.5 21.5t-6.5 23.5zM448 363q0 52 26 96.5t70 70t96 25.5q80 0 136 -56t56 -135.5t-56 -136
t-135.5 -56.5t-136 56.5t-56.5 135.5zM320 492h-192q-13 0 -22.5 9.5t-9.5 22.5t9.5 22.5t22.5 9.5h192q13 0 22.5 -9.5t9.5 -22.5t-9.5 -22.5t-22.5 -9.5zM256 236h-128q-13 0 -22.5 9.5t-9.5 22.5t9.5 22.5t22.5 9.5h128q13 0 22.5 -9.5t9.5 -22.5t-9.5 -22.5t-22.5 -9.5z
M480 12h-352q-13 0 -22.5 9.5t-9.5 22.5t9.5 22.5t22.5 9.5h352q13 0 22.5 -9.5t9.5 -22.5t-9.5 -22.5t-22.5 -9.5z" />
    <glyph glyph-name="uniE700" unicode="&#xe700;" 
d="M384 492h512q13 0 22.5 9.5t9.5 22.5t-9.5 22.5t-22.5 9.5h-512q-13 0 -22.5 -9.5t-9.5 -22.5t9.5 -22.5t22.5 -9.5zM896 332h-512q-13 0 -22.5 -9.5t-9.5 -22.5t9.5 -22.5t22.5 -9.5h512q13 0 22.5 9.5t9.5 22.5t-9.5 22.5t-22.5 9.5zM896 108h-512q-13 0 -22.5 -9.5
t-9.5 -22.5t9.5 -22.5t22.5 -9.5h512q13 0 22.5 9.5t9.5 22.5t-9.5 22.5t-22.5 9.5zM192 524zM128 524q0 26 19 45t45 19t45 -19t19 -45t-19 -45t-45 -19t-45 19t-19 45zM192 300zM128 300q0 26 19 45t45 19t45 -19t19 -45t-19 -45t-45 -19t-45 19t-19 45zM192 76zM128 76
q0 26 19 45t45 19t45 -19t19 -45t-19 -45t-45 -19t-45 19t-19 45z" />
    <glyph glyph-name="uniE703" unicode="&#xe703;" 
d="M792.5 326.5q-9.5 9.5 -22.5 9.5t-22 -10l-204 -203v561q0 13 -9.5 22.5t-22.5 9.5t-22.5 -9.5t-9.5 -22.5v-563l-234 235q-9 10 -22.5 10t-23 -9.5t-9.5 -22.5t10 -23l287 -289q2 -2 3.5 -3t3.5 -2l4 -2q6 -3 13 -3q8 0 15 4t11 11l255 254q9 9 9 22.5t-9.5 23z
M864 -116h-704q-13 0 -22.5 9.5t-9.5 22.5t9.5 22.5t22.5 9.5h704q13 0 22.5 -9.5t9.5 -22.5t-9.5 -22.5t-22.5 -9.5z" />
    <glyph glyph-name="uniE704" unicode="&#xe704;" 
d="M736 -180h-448q-40 0 -68 28t-28 68v768q0 40 28 68t68 28h448q40 0 68 -28t28 -68v-768q0 -40 -28 -68t-68 -28zM288 716q-13 0 -22.5 -9.5t-9.5 -22.5v-768q0 -13 9.5 -22.5t22.5 -9.5h448q13 0 22.5 9.5t9.5 22.5v768q0 13 -9.5 22.5t-22.5 9.5h-448zM512 -84
q-26 0 -45 18.5t-19 45t19 45.5t45 19t45 -19t19 -45q0 -18 -8.5 -32.5t-23.5 -23t-32 -8.5zM512 -20v-32v32zM704 76h-384q-13 0 -22.5 9.5t-9.5 22.5v544q0 13 9.5 22.5t22.5 9.5h384q13 0 22.5 -9.5t9.5 -22.5v-544q0 -13 -9.5 -22.5t-22.5 -9.5zM352 140h320v480h-320
v-480z" />
    <glyph glyph-name="uniE705" unicode="&#xe705;" 
d="M512 -52v32v-32zM736 748h-448q-26 0 -45 -19t-19 -45v-768q0 -26 19 -45t45 -19h448q26 0 45 19t19 45v768q0 26 -19 45t-45 19zM512 -84q-26 0 -45 18.5t-19 45t19 45.5t45 19t45 -19t19 -45q0 -18 -8.5 -32.5t-23.5 -23t-32 -8.5zM704 108h-384v544h384v-544z" />
    <glyph glyph-name="uniE707" unicode="&#xe707;" 
d="M576 652h-128q-13 0 -22.5 9.5t-9.5 22.5t9.5 22.5t22.5 9.5h128q13 0 22.5 -9.5t9.5 -22.5t-9.5 -22.5t-22.5 -9.5zM819 466l36 35q9 10 9 23t-9.5 22.5t-22.5 9.5t-23 -9l-33 -33q-52 50 -120.5 78t-143.5 28q-159 0 -271.5 -112.5t-112.5 -271.5t112.5 -271.5
t271.5 -112.5t271.5 112.5t112.5 271.5q0 63 -20 122t-57 108zM480 556q0 13 9.5 22.5t22.5 9.5t22.5 -9.5t9.5 -22.5v-32q0 -13 -9.5 -22.5t-22.5 -9.5t-22.5 9.5t-9.5 22.5v32zM224 204h-32q-13 0 -22.5 9.5t-9.5 22.5t9.5 22.5t22.5 9.5h32q13 0 22.5 -9.5t9.5 -22.5
t-9.5 -22.5t-22.5 -9.5zM544 -84q0 -13 -9.5 -22.5t-22.5 -9.5t-22.5 9.5t-9.5 22.5v32q0 13 9.5 22.5t22.5 9.5t22.5 -9.5t9.5 -22.5v-32zM692 339l-160 -128q-9 -7 -20 -7q-15 0 -25 12q-5 7 -6.5 15.5t1.5 16.5t10 13l160 128q10 8 23.5 6.5t21.5 -11.5t6.5 -23.5
t-11.5 -21.5zM832 204h-32q-13 0 -22.5 9.5t-9.5 22.5t9.5 22.5t22.5 9.5h32q13 0 22.5 -9.5t9.5 -22.5t-9.5 -22.5t-22.5 -9.5z" />
    <glyph glyph-name="uniE708" unicode="&#xe708;" 
d="M576 652h-128q-13 0 -22.5 9.5t-9.5 22.5t9.5 22.5t22.5 9.5h128q13 0 22.5 -9.5t9.5 -22.5t-9.5 -22.5t-22.5 -9.5zM819 466l36 35q9 10 9 23t-9.5 22.5t-22.5 9.5t-23 -9l-33 -33q-52 50 -120.5 78t-143.5 28q-159 0 -271.5 -112.5t-112.5 -271.5t112.5 -271.5
t271.5 -112.5t271.5 112.5t112.5 271.5q0 63 -20 122t-57 108zM544 -82v30q0 13 -9.5 22.5t-22.5 9.5t-22.5 -9.5t-9.5 -22.5v-30q-113 11 -194 92t-92 194h30q13 0 22.5 9.5t9.5 22.5t-9.5 22.5t-22.5 9.5h-30q11 113 92 194t194 92v-30q0 -13 9.5 -22.5t22.5 -9.5
t22.5 9.5t9.5 22.5v30q75 -7 137.5 -46.5t102 -102t46.5 -137.5h-30q-13 0 -22.5 -9.5t-9.5 -22.5t9.5 -22.5t22.5 -9.5h30q-11 -113 -92 -194t-194 -92zM652 389l-160 -128q-10 -8 -11.5 -21.5t6.5 -23.5q5 -6 11.5 -9t13.5 -3q4 0 7 1t6.5 2.5t6.5 3.5l160 128
q10 8 11.5 21.5t-6.5 23.5t-21.5 11.5t-23.5 -6.5z" />
    <glyph glyph-name="uniE709" unicode="&#xe709;" 
d="M890 62q-2 3 -4.5 6.5t-11 16.5t-16 25.5t-18.5 32t-20 38t-18.5 41t-16 43t-10.5 43t-4 42.5q0 118 -45.5 189t-117.5 98v15q0 40 -28 68t-68 28t-68 -28t-28 -68v-15q-72 -27 -117.5 -98t-45.5 -189q0 -25 -6.5 -54.5t-16.5 -55.5t-23.5 -54t-25 -48t-23.5 -39
t-16.5 -26t-7.5 -10q-8 -12 -5 -26t16 -21t35.5 -18t82 -33t115.5 -34q11 -33 31 -58t46.5 -39t56.5 -14q45 0 81 30.5t53 80.5q35 8 72 19.5t62.5 21t50.5 20.5t34 15.5t14 7.5q6 4 10.5 9.5t5.5 11.5q1 3 1 6v6l-2 4q0 3 -1 5.5t-3 4.5zM480 652q0 13 9.5 22.5t22.5 9.5
t22.5 -9.5t9.5 -22.5v-1q-4 0 -7.5 0.5t-6.5 0.5h-7h-22q-10 0 -21 -1v1zM512 -116q-34 0 -58 35q31 -3 58 -3t58 3q-11 -16 -26 -25.5t-32 -9.5z" />
    </font>
</defs>
</svg>
